<svg width="24" height="24" viewBox="0 0 24 24" fill="none" xmlns="http://www.w3.org/2000/svg">
<path d="M8.75 4.9999C8.75 4.58569 8.41421 4.2499 8 4.2499C7.58579 4.2499 7.25 4.58569 7.25 4.99991L8.75 4.9999ZM5.39785 17.2104L4.86516 17.7383H4.86516L5.39785 17.2104ZM4.53269 15.272C4.24111 14.9778 3.76624 14.9757 3.47204 15.2673C3.17784 15.5589 3.17573 16.0338 3.46731 16.328L4.53269 15.272ZM18.6022 6.58918L19.1348 6.06123V6.06123L18.6022 6.58918ZM19.4673 8.52752C19.7589 8.82172 20.2338 8.82384 20.528 8.53225C20.8222 8.24067 20.8243 7.7658 20.5327 7.4716L19.4673 8.52752ZM16.2507 4.81547L16.3455 4.07149L16.3455 4.07149L16.2507 4.81547ZM15.25 18.9999C15.25 19.4141 15.5858 19.7499 16 19.7499C16.4142 19.7499 16.75 19.4141 16.75 18.9999H15.25ZM16.2 4.80968L16.1243 5.55585L16.2 4.80968ZM8 18.7486H7.25H8ZM8.75 18.7486L8.75 4.9999L7.25 4.99991L7.25 18.7486H8.75ZM5.93054 16.6824L4.53269 15.272L3.46731 16.328L4.86516 17.7383L5.93054 16.6824ZM4.86516 17.7383C5.41012 18.2882 5.86265 18.7464 6.26724 19.0713C6.68367 19.4057 7.12131 19.6601 7.6545 19.7281L7.84416 18.2401C7.698 18.2215 7.51728 18.1514 7.20649 17.9018C6.88386 17.6427 6.50033 17.2573 5.93054 16.6824L4.86516 17.7383ZM18.0695 7.11714L19.4673 8.52752L20.5327 7.4716L19.1348 6.06123L18.0695 7.11714ZM19.1348 6.06123C18.5899 5.51138 18.1373 5.05318 17.7328 4.72825C17.3163 4.39383 16.8787 4.13945 16.3455 4.07149L16.1558 5.55945C16.302 5.57808 16.4827 5.64819 16.7935 5.89779C17.1161 6.15689 17.4997 6.54224 18.0695 7.11714L19.1348 6.06123ZM16.1243 5.55585C16.1348 5.55691 16.1453 5.55812 16.1558 5.55945L16.3455 4.07149C16.3222 4.06853 16.299 4.06587 16.2757 4.0635L16.1243 5.55585ZM15.25 4.9999V18.9999H16.75V4.9999H15.25ZM16.2757 4.0635C15.6728 4.00237 15.25 4.49791 15.25 4.9999L16.75 4.99991C16.75 5.2806 16.507 5.59465 16.1243 5.55585L16.2757 4.0635ZM7.25 18.7486C7.25 18.5033 7.46894 18.1923 7.84416 18.2401L7.6545 19.7281C8.30512 19.811 8.75 19.2714 8.75 18.7486H7.25Z" fill="#FAFAFA"/>
</svg>
