<svg width="24" height="24" viewBox="0 0 24 24" fill="none" xmlns="http://www.w3.org/2000/svg">
<path d="M5.29007 21.3573L4.92221 22.0109L5.29007 21.3573ZM3.264 12.8995L4.00687 13.0026L3.264 12.8995ZM3.08927 18.8297L2.39129 19.1041L3.08927 18.8297ZM20.7361 12.8995L19.9932 13.0026L20.7361 12.8995ZM20.9108 18.8297L21.6088 19.1041L20.9108 18.8297ZM18.71 21.3573L19.0779 22.0109L18.71 21.3573ZM17.5079 6.45483L17.1953 7.13661L17.5079 6.45483ZM19.6396 8.31092L20.2719 7.90756L19.6396 8.31092ZM6.49219 6.45483L6.80473 7.13661L6.49219 6.45483ZM4.36049 8.31092L3.7282 7.90756L4.36049 8.31092ZM8.53036 10.4697C8.23747 10.1768 7.7626 10.1768 7.4697 10.4697C7.17681 10.7626 7.17681 11.2374 7.4697 11.5303L8.53036 10.4697ZM16.5304 11.5303C16.8233 11.2374 16.8233 10.7626 16.5304 10.4697C16.2375 10.1768 15.7626 10.1768 15.4697 10.4697L16.5304 11.5303ZM15.6 11.4L15.0697 10.8697L15.6 11.4ZM16 6.08268L15.9216 6.82857L16 6.08268ZM11.1879 6.75H12.8121V5.25H11.1879V6.75ZM12.8121 21.25H11.1879V22.75H12.8121V21.25ZM11.1879 21.25C9.58944 21.25 8.43827 21.2494 7.54245 21.1724C6.65402 21.0961 6.09452 20.9494 5.65793 20.7037L4.92221 22.0109C5.6276 22.4079 6.43173 22.5825 7.41409 22.6669C8.38906 22.7506 9.61584 22.75 11.1879 22.75V21.25ZM2.52113 12.7963C2.30486 14.3534 2.13545 15.5685 2.08427 16.5457C2.0327 17.5303 2.09509 18.3508 2.39129 19.1041L3.78725 18.5552C3.60392 18.089 3.53558 17.5146 3.58222 16.6241C3.62924 15.7262 3.78697 14.5859 4.00687 13.0026L2.52113 12.7963ZM5.65793 20.7037C4.80578 20.2241 4.14508 19.4653 3.78725 18.5552L2.39129 19.1041C2.87541 20.3353 3.76929 21.362 4.92221 22.0109L5.65793 20.7037ZM19.9932 13.0026C20.2131 14.5859 20.3708 15.7262 20.4179 16.6241C20.4645 17.5146 20.3961 18.089 20.2128 18.5552L21.6088 19.1041C21.905 18.3508 21.9674 17.5303 21.9158 16.5457C21.8646 15.5685 21.6952 14.3534 21.4789 12.7963L19.9932 13.0026ZM12.8121 22.75C14.3842 22.75 15.611 22.7506 16.586 22.6669C17.5683 22.5825 18.3725 22.4079 19.0779 22.0109L18.3421 20.7037C17.9056 20.9494 17.346 21.0961 16.4576 21.1724C15.5618 21.2494 14.4106 21.25 12.8121 21.25V22.75ZM20.2128 18.5552C19.855 19.4653 19.1943 20.2241 18.3421 20.7037L19.0779 22.0109C20.2308 21.362 21.1247 20.3353 21.6088 19.1041L20.2128 18.5552ZM21.4789 12.7963C21.3107 11.5848 21.1792 10.6345 21.0134 9.87347C20.8456 9.1033 20.6319 8.47195 20.2719 7.90756L19.0073 8.71429C19.2342 9.07006 19.399 9.51019 19.5478 10.1928C19.6985 10.8847 19.8218 11.7685 19.9932 13.0026L21.4789 12.7963ZM17.1953 7.13661C17.9385 7.47729 18.5676 8.02507 19.0073 8.71429L20.2719 7.90756C19.677 6.97509 18.8259 6.23397 17.8204 5.77306L17.1953 7.13661ZM4.00687 13.0026C4.17828 11.7685 4.30155 10.8847 4.4523 10.1928C4.60105 9.51019 4.76583 9.07006 4.99279 8.71429L3.7282 7.90756C3.36816 8.47195 3.15452 9.1033 2.98669 9.87347C2.82086 10.6345 2.68938 11.5848 2.52113 12.7963L4.00687 13.0026ZM6.17965 5.77306C5.17421 6.23397 4.32305 6.97509 3.7282 7.90756L4.99279 8.71429C5.43246 8.02507 6.06158 7.47728 6.80473 7.13661L6.17965 5.77306ZM12 2.75C13.795 2.75 15.25 4.20507 15.25 6H16.75C16.75 3.37665 14.6234 1.25 12 1.25V2.75ZM12 1.25C9.37668 1.25 7.25003 3.37665 7.25003 6H8.75003C8.75003 4.20507 10.2051 2.75 12 2.75V1.25ZM8.93036 10.8697L8.53036 10.4697L7.4697 11.5303L7.8697 11.9303L8.93036 10.8697ZM15.4697 10.4697L15.0697 10.8697L16.1304 11.9303L16.5304 11.5303L15.4697 10.4697ZM7.8697 11.9303C10.1508 14.2114 13.8492 14.2114 16.1304 11.9303L15.0697 10.8697C13.3744 12.565 10.6257 12.565 8.93036 10.8697L7.8697 11.9303ZM15.25 6V6.08268H16.75V6H15.25ZM12.8121 6.75C14.2275 6.75 15.1833 6.75098 15.9216 6.82857L16.0784 5.33679C15.2433 5.24902 14.1941 5.25 12.8121 5.25V6.75ZM15.9216 6.82857C16.4733 6.88655 16.8629 6.98419 17.1953 7.13661L17.8204 5.77306C17.2927 5.53112 16.7309 5.40536 16.0784 5.33679L15.9216 6.82857ZM8.75003 6.08268V6H7.25003V6.08268H8.75003ZM11.1879 5.25C9.80591 5.25 8.75677 5.24902 7.92164 5.33679L8.07843 6.82857C8.81672 6.75098 9.77261 6.75 11.1879 6.75V5.25ZM7.92164 5.33679C7.26921 5.40536 6.70742 5.53112 6.17965 5.77306L6.80473 7.13661C7.13721 6.98419 7.52675 6.88655 8.07843 6.82857L7.92164 5.33679Z" fill="#FAFAFA"/>
</svg>
