<svg width="24" height="24" viewBox="0 0 24 24" fill="none" xmlns="http://www.w3.org/2000/svg">
<path d="M2.01161 13.1043L2.75702 13.0215L2.01161 13.1043ZM21.9884 13.1043L21.243 13.0215L21.9884 13.1043ZM22.2843 10.4417L23.0297 10.5246L22.2843 10.4417ZM1.71577 10.4417L2.46118 10.3589L1.71577 10.4417ZM6.53035 9.46967C6.23746 9.17678 5.76258 9.17678 5.46969 9.46967C5.1768 9.76256 5.1768 10.2374 5.46969 10.5303L6.53035 9.46967ZM18.5304 10.5303C18.8232 10.2374 18.8232 9.76256 18.5303 9.46967C18.2375 9.17678 17.7626 9.17678 17.4697 9.46967L18.5304 10.5303ZM17.4 10.6L17.9304 11.1303L17.4 10.6ZM7.00318 5.82056L6.25365 5.79412L7.00318 5.82056ZM16.9987 5.88248L16.2489 5.89978L16.9987 5.88248ZM21.5389 10.3589L21.243 13.0215L22.7338 13.1871L23.0297 10.5246L21.5389 10.3589ZM2.75702 13.0215L2.46118 10.3589L0.970356 10.5246L1.2662 13.1871L2.75702 13.0215ZM12 21.25C9.835 21.25 8.28232 21.2486 7.09012 21.0967C5.91835 20.9475 5.19533 20.6631 4.64082 20.1668L3.64044 21.2845C4.50972 22.0625 5.5712 22.4154 6.90058 22.5847C8.20953 22.7514 9.87465 22.75 12 22.75V21.25ZM1.2662 13.1871C1.49907 15.283 1.68019 16.9261 1.98967 18.2008C2.30419 19.4962 2.77199 20.5072 3.64044 21.2845L4.64082 20.1668C4.08547 19.6697 3.72383 18.9857 3.44733 17.8469C3.16579 16.6873 2.9943 15.1569 2.75702 13.0215L1.2662 13.1871ZM21.243 13.0215C21.0057 15.1569 20.8343 16.6873 20.5527 17.8469C20.2762 18.9857 19.9146 19.6697 19.3592 20.1668L20.3596 21.2845C21.2281 20.5072 21.6958 19.4962 22.0104 18.2008C22.3199 16.9261 22.501 15.283 22.7338 13.1871L21.243 13.0215ZM12 22.75C14.1254 22.75 15.7905 22.7514 17.0995 22.5847C18.4288 22.4154 19.4903 22.0625 20.3596 21.2845L19.3592 20.1668C18.8047 20.6631 18.0817 20.9475 16.9099 21.0967C15.7177 21.2486 14.165 21.25 12 21.25V22.75ZM18.3087 6.75C19.374 6.75 20.094 6.75173 20.6259 6.82605C21.1366 6.89741 21.344 7.02031 21.4747 7.16635L22.5924 6.16597C22.1268 5.64585 21.5147 5.43567 20.8335 5.34049C20.1735 5.24827 19.3292 5.25 18.3087 5.25V6.75ZM23.0297 10.5246C23.1424 9.51033 23.2373 8.6714 23.2186 8.00527C23.1992 7.31769 23.0579 6.68609 22.5924 6.16597L21.4747 7.16635C21.6054 7.31239 21.7046 7.5321 21.7192 8.04752C21.7343 8.58441 21.6565 9.30019 21.5389 10.3589L23.0297 10.5246ZM5.6913 5.25C4.67084 5.25 3.82655 5.24827 3.16658 5.34049C2.48534 5.43567 1.8732 5.64585 1.40767 6.16597L2.52536 7.16635C2.65607 7.02031 2.86348 6.89741 3.37415 6.82605C3.90608 6.75173 4.62607 6.75 5.6913 6.75V5.25ZM2.46118 10.3589C2.34355 9.30019 2.26576 8.58441 2.28088 8.04752C2.29541 7.5321 2.39465 7.31239 2.52536 7.16635L1.40767 6.16597C0.942142 6.68609 0.800852 7.31769 0.781478 8.00527C0.76271 8.6714 0.857664 9.51033 0.970356 10.5246L2.46118 10.3589ZM7.13035 10.0697L6.53035 9.46967L5.46969 10.5303L6.06969 11.1303L7.13035 10.0697ZM17.4697 9.46967L16.8697 10.0697L17.9304 11.1303L18.5304 10.5303L17.4697 9.46967ZM6.06969 11.1303C9.34492 14.4056 14.6551 14.4056 17.9304 11.1303L16.8697 10.0697C14.1802 12.7591 9.8198 12.7591 7.13035 10.0697L6.06969 11.1303ZM5.6913 6.75H7.00002V5.25H5.6913V6.75ZM12 0.25C8.8933 0.25 6.36231 2.71357 6.25365 5.79412L7.75271 5.847C7.833 3.57093 9.70402 1.75 12 1.75V0.25ZM6.25365 5.79412C6.25124 5.86248 6.25002 5.93112 6.25002 6H7.75002C7.75002 5.94875 7.75092 5.89775 7.75271 5.847L6.25365 5.79412ZM12 1.75C14.3137 1.75 16.1958 3.59906 16.2489 5.89978L17.7485 5.86519C17.6767 2.75163 15.1306 0.25 12 0.25V1.75ZM16.2489 5.89978C16.2496 5.93308 16.25 5.96649 16.25 6H17.75C17.75 5.95495 17.7495 5.91001 17.7485 5.86519L16.2489 5.89978ZM7.00002 6.75H17V5.25H7.00002V6.75ZM17 6.75H18.3087V5.25H17V6.75Z" fill="#FAFAFA"/>
</svg>
