<svg width="24" height="24" viewBox="0 0 24 24" fill="none" xmlns="http://www.w3.org/2000/svg">
<path d="M19.897 8.79145C20.2868 9.66443 20.452 10.8544 20.7361 12.8995C21.1722 16.0399 21.3903 17.6101 20.9108 18.8297C20.4898 19.9003 19.7125 20.793 18.71 21.3573C17.568 22 15.9827 22 12.8121 22H11.1879C8.01734 22 6.43205 22 5.29007 21.3573C4.28753 20.793 3.51024 19.9003 3.08927 18.8297C2.60974 17.6101 2.82783 16.0399 3.264 12.8995C3.53008 10.9837 3.69194 9.81829 4.03176 8.96093M19.897 8.79145C19.8207 8.62046 19.7357 8.46163 19.6396 8.31092C19.1223 7.50008 18.3822 6.85563 17.5079 6.45483C17.3464 6.38082 17.1786 6.31886 17 6.26698M19.897 8.79145L19.8079 8.87868L18.9498 9.7368C15.6164 13.0701 13.9498 14.7368 11.8787 14.7368C9.80763 14.7368 8.14096 13.0701 4.80763 9.7368L4.03176 8.96093M17 6.26698C16.0813 6 14.8794 6 12.8121 6H11.1879C9.12063 6 7.91879 6 7.00003 6.26698M17 6.26698V6C17 3.23858 14.7615 1 12 1C9.23861 1 7.00003 3.23858 7.00003 6V6.26698M7.00003 6.26698C6.82149 6.31886 6.65363 6.38082 6.49219 6.45483C5.6179 6.85563 4.87775 7.50008 4.36049 8.31092C4.23332 8.51027 4.12573 8.72382 4.03176 8.96093" stroke="#FAFAFA" stroke-width="1.5"/>
</svg>
