<svg width="24" height="24" viewBox="0 0 24 24" fill="none" xmlns="http://www.w3.org/2000/svg">
<mask id="path-1-inside-1_195_2883" fill="white">
<path d="M5 10C5 8.13872 5 7.20808 5.24472 6.45492C5.73931 4.93273 6.93273 3.73931 8.45492 3.24472C9.20808 3 10.1387 3 12 3C13.8613 3 14.7919 3 15.5451 3.24472C17.0673 3.73931 18.2607 4.93273 18.7553 6.45492C19 7.20808 19 8.13872 19 10V17.3874C19 19.3045 19 20.2631 18.658 20.77C18.2403 21.3893 17.5122 21.7242 16.7701 21.6383C16.1627 21.568 15.4349 20.9442 13.9793 19.6965C13.3386 19.1474 13.0182 18.8728 12.6663 18.7484C12.2352 18.5961 11.7648 18.5961 11.3337 18.7484C10.9818 18.8728 10.6614 19.1474 10.0207 19.6965C8.5651 20.9442 7.8373 21.568 7.22986 21.6383C6.48778 21.7242 5.75971 21.3893 5.34196 20.77C5 20.2631 5 19.3045 5 17.3874V10Z"/>
</mask>
<path d="M15.25 10C15.25 10.4142 15.5858 10.75 16 10.75C16.4142 10.75 16.75 10.4142 16.75 10H15.25ZM12 5.25C11.5858 5.25 11.25 5.58579 11.25 6C11.25 6.41421 11.5858 6.75 12 6.75V5.25ZM16.75 10C16.75 7.37665 14.6234 5.25 12 5.25V6.75C13.7949 6.75 15.25 8.20507 15.25 10H16.75ZM13.9793 19.6965L14.9555 18.5577L13.9793 19.6965ZM12.6663 18.7484L12.1666 20.1627L12.6663 18.7484ZM10.0207 19.6965L10.9969 20.8354L10.0207 19.6965ZM11.3337 18.7484L11.8334 20.1627L11.3337 18.7484ZM5.34196 20.77L4.09842 21.6088H4.09842L5.34196 20.77ZM7.22986 21.6383L7.05747 20.1482L7.22986 21.6383ZM18.658 20.77L19.9016 21.6088L18.658 20.77ZM16.7701 21.6383L16.9425 20.1482L16.7701 21.6383ZM15.5451 3.24472L15.0816 4.6713L15.5451 3.24472ZM18.7553 6.45492L17.3287 6.91844L18.7553 6.45492ZM8.45492 3.24472L8.91844 4.6713L8.45492 3.24472ZM5.24472 6.45492L6.6713 6.91844L5.24472 6.45492ZM17.5 10V17.3874H20.5V10H17.5ZM6.5 17.3874V10H3.5V17.3874H6.5ZM14.9555 18.5577C14.4149 18.0943 13.8471 17.5747 13.166 17.3341L12.1666 20.1627C12.1426 20.1542 12.1728 20.1571 12.3156 20.264C12.4709 20.3802 12.6678 20.5481 13.0031 20.8354L14.9555 18.5577ZM10.9969 20.8354C11.3322 20.5481 11.5291 20.3802 11.6844 20.264C11.8272 20.1571 11.8574 20.1542 11.8334 20.1627L10.834 17.3341C10.1529 17.5747 9.58512 18.0943 9.04451 18.5577L10.9969 20.8354ZM13.166 17.3341C12.4115 17.0675 11.5885 17.0675 10.834 17.3341L11.8334 20.1627C11.9412 20.1246 12.0588 20.1246 12.1666 20.1627L13.166 17.3341ZM3.5 17.3874C3.5 18.3201 3.49888 19.1096 3.54738 19.7253C3.59346 20.3103 3.69689 21.0136 4.09842 21.6088L6.58549 19.9312C6.64506 20.0195 6.57752 19.99 6.53811 19.4897C6.50112 19.0201 6.5 18.3718 6.5 17.3874H3.5ZM9.04451 18.5577C8.29708 19.1983 7.80411 19.6194 7.42348 19.8969C7.018 20.1926 6.95164 20.1605 7.05747 20.1482L7.40226 23.1284C8.11553 23.0458 8.71679 22.6667 9.19096 22.321C9.68999 21.9571 10.2887 21.4424 10.9969 20.8354L9.04451 18.5577ZM4.09842 21.6088C4.82949 22.6926 6.10362 23.2786 7.40226 23.1284L7.05747 20.1482C6.87194 20.1697 6.68993 20.086 6.58549 19.9312L4.09842 21.6088ZM17.5 17.3874C17.5 18.3718 17.4989 19.0201 17.4619 19.4897C17.4225 19.99 17.3549 20.0195 17.4145 19.9312L19.9016 21.6088C20.3031 21.0136 20.4065 20.3103 20.4526 19.7253C20.5011 19.1096 20.5 18.3201 20.5 17.3874H17.5ZM13.0031 20.8354C13.7113 21.4424 14.31 21.9571 14.809 22.321C15.2832 22.6667 15.8845 23.0458 16.5977 23.1284L16.9425 20.1482C17.0484 20.1605 16.982 20.1926 16.5765 19.8969C16.1959 19.6194 15.7029 19.1983 14.9555 18.5577L13.0031 20.8354ZM17.4145 19.9312C17.3101 20.086 17.1281 20.1697 16.9425 20.1482L16.5977 23.1284C17.8964 23.2786 19.1705 22.6926 19.9016 21.6088L17.4145 19.9312ZM12 4.5C13.978 4.5 14.6113 4.51851 15.0816 4.6713L16.0086 1.81813C14.9725 1.48149 13.7445 1.5 12 1.5V4.5ZM20.5 10C20.5 8.25547 20.5185 7.02746 20.1819 5.99139L17.3287 6.91844C17.4815 7.3887 17.5 8.02197 17.5 10H20.5ZM15.0816 4.6713C16.1471 5.01751 16.9825 5.85291 17.3287 6.91844L20.1819 5.99139C19.5389 4.01254 17.9875 2.4611 16.0086 1.81813L15.0816 4.6713ZM12 1.5C10.2555 1.5 9.02746 1.48149 7.99139 1.81813L8.91844 4.6713C9.3887 4.51851 10.022 4.5 12 4.5V1.5ZM6.5 10C6.5 8.02197 6.51851 7.3887 6.6713 6.91844L3.81813 5.99139C3.48149 7.02746 3.5 8.25547 3.5 10H6.5ZM7.99139 1.81813C6.01254 2.4611 4.4611 4.01254 3.81813 5.99139L6.6713 6.91844C7.01751 5.85291 7.85291 5.01751 8.91844 4.6713L7.99139 1.81813Z" fill="#FAFAFA" mask="url(#path-1-inside-1_195_2883)"/>
</svg>
