<svg width="24" height="24" viewBox="0 0 24 24" fill="none" xmlns="http://www.w3.org/2000/svg">
<path d="M9.35605 12.2765L9.88638 11.7461L9.35605 12.2765ZM11.7529 14.6733L11.2225 15.2036L11.7529 14.6733ZM15.6721 21.9582L15.8348 21.226L15.6721 21.9582ZM2.07115 8.35725L2.80329 8.19455L2.07115 8.35725ZM19.4518 20.1314L18.8995 19.6239L19.4518 20.1314ZM19.4518 17.425L18.8995 17.9324L19.4518 17.425ZM3.89794 4.57756L4.4054 5.12982L3.89794 4.57756ZM6.60436 4.57756L6.09691 5.12982L6.60436 4.57756ZM18.3639 10.6267H17.6139H18.3639ZM17.6139 11.1924C17.6139 11.6066 17.9497 11.9424 18.3639 11.9424C18.7782 11.9424 19.1139 11.6066 19.1139 11.1924H17.6139ZM12.7071 4.78553C12.2929 4.78553 11.9571 5.12132 11.9571 5.53553C11.9571 5.94975 12.2929 6.28553 12.7071 6.28553V4.78553ZM13.2728 5.53553V6.28553H13.2728L13.2728 5.53553ZM18.3634 10.4639L19.1134 10.4532L18.3634 10.4639ZM13.4355 5.53605L13.4463 4.78612L13.4463 4.78612L13.4355 5.53605ZM21.8996 10.9095H22.6496H21.8996ZM21.1496 11.8995C21.1496 12.3137 21.4854 12.6495 21.8996 12.6495C22.3138 12.6495 22.6496 12.3137 22.6496 11.8995H21.1496ZM12.0001 1.25C11.5859 1.25 11.2501 1.58579 11.2501 2C11.2501 2.41421 11.5859 2.75 12.0001 2.75V1.25ZM12.99 2V2.75H12.99L12.99 2ZM21.8677 9.28659L21.1207 9.35348V9.35348L21.8677 9.28659ZM14.613 2.03187L14.5461 2.77888V2.77888L14.613 2.03187ZM18.7869 19.7381L17.9005 20.6245L18.9612 21.6851L19.8475 20.7988L18.7869 19.7381ZM3.40484 6.12879L4.29118 5.24245L3.23052 4.18179L2.34418 5.06813L3.40484 6.12879ZM17.3287 16.36L18.7869 17.8182L19.8475 16.7575L18.3893 15.2993L17.3287 16.36ZM6.21112 5.24245L7.66932 6.70065L8.72998 5.63999L7.27178 4.18179L6.21112 5.24245ZM8.09033 8.9237C7.51387 10.2462 7.80562 11.7867 8.82572 12.8068L9.88638 11.7461C9.30238 11.1621 9.13535 10.2802 9.46537 9.52308L8.09033 8.9237ZM11.2225 15.2036C12.2426 16.2237 13.7832 16.5155 15.1056 15.939L14.5062 14.564C13.7491 14.894 12.8672 14.7269 12.2832 14.1429L11.2225 15.2036ZM15.8348 21.226C9.32944 19.7804 4.24892 14.6999 2.80329 8.19455L1.33901 8.51995C2.91098 15.5938 8.43551 21.1183 15.5094 22.6903L15.8348 21.226ZM7.66932 6.70065C8.25332 7.28465 8.42035 8.16659 8.09033 8.9237L9.46537 9.52308C10.0418 8.20062 9.75008 6.66009 8.72998 5.63999L7.66932 6.70065ZM2.34418 5.06813C1.44107 5.97125 1.06195 7.27316 1.33901 8.51995L2.80329 8.19455C2.63748 7.44841 2.86437 6.66927 3.40484 6.12879L2.34418 5.06813ZM17.9005 20.6245C17.3601 21.165 16.5809 21.3918 15.8348 21.226L15.5094 22.6903C16.7562 22.9674 18.0581 22.5883 18.9612 21.6851L17.9005 20.6245ZM19.8475 20.7988C19.9128 20.7336 19.962 20.6846 20.004 20.6388L18.8995 19.6239C18.8843 19.6404 18.8629 19.6621 18.7869 19.7381L19.8475 20.7988ZM18.7869 17.8182C18.8629 17.8943 18.8843 17.9159 18.8995 17.9324L20.004 16.9175C19.962 16.8718 19.9128 16.8228 19.8475 16.7575L18.7869 17.8182ZM20.004 20.6388C20.9708 19.5867 20.9708 17.9696 20.004 16.9175L18.8995 17.9324C19.3389 18.4106 19.3389 19.1457 18.8995 19.6239L20.004 20.6388ZM18.3893 15.2993C17.3692 14.2792 15.8287 13.9875 14.5062 14.564L15.1056 15.939C15.8627 15.609 16.7447 15.776 17.3287 16.36L18.3893 15.2993ZM4.29118 5.24245C4.36725 5.16638 4.38889 5.14498 4.4054 5.12982L3.39049 4.0253C3.34476 4.06732 3.29575 4.11656 3.23052 4.18179L4.29118 5.24245ZM7.27178 4.18179C7.20656 4.11657 7.15755 4.06732 7.11182 4.0253L6.09691 5.12982C6.11342 5.14498 6.13505 5.16638 6.21112 5.24245L7.27178 4.18179ZM4.4054 5.12982C4.88362 4.69039 5.61869 4.69039 6.09691 5.12982L7.11182 4.0253C6.05973 3.05856 4.44258 3.05856 3.39049 4.0253L4.4054 5.12982ZM8.82572 12.8068L11.2225 15.2036L12.2832 14.1429L9.88638 11.7461L8.82572 12.8068ZM17.6139 10.6267V11.1924H19.1139V10.6267H17.6139ZM12.7071 6.28553H13.2728V4.78553H12.7071V6.28553ZM19.1139 10.6267C19.1139 10.5446 19.114 10.4957 19.1134 10.4532L17.6135 10.4747C17.6139 10.5037 17.6139 10.5395 17.6139 10.6267H19.1139ZM13.2728 6.28553C13.36 6.28553 13.3957 6.28555 13.4248 6.28597L13.4463 4.78612C13.4038 4.78551 13.3548 4.78553 13.2728 4.78553L13.2728 6.28553ZM19.1134 10.4532C19.0688 7.342 16.5575 4.83068 13.4463 4.78612L13.4248 6.28597C15.7244 6.3189 17.5806 8.17509 17.6135 10.4747L19.1134 10.4532ZM21.1496 10.9095V11.8995H22.6496V10.9095H21.1496ZM12.0001 2.75L12.99 2.75V1.25L12.0001 1.25V2.75ZM22.6496 10.9095C22.6496 10.0811 22.6503 9.61749 22.6147 9.21971L21.1207 9.35348C21.1488 9.66768 21.1496 10.0487 21.1496 10.9095H22.6496ZM12.99 2.75C13.8509 2.75 14.2319 2.75075 14.5461 2.77888L14.6799 1.28486C14.2821 1.24925 13.8184 1.25 12.99 1.25L12.99 2.75ZM22.6147 9.21971C22.2373 5.00365 18.8959 1.66233 14.6799 1.28486L14.5461 2.77888C18.0394 3.09165 20.8079 5.86017 21.1207 9.35348L22.6147 9.21971Z" fill="#FAFAFA"/>
</svg>
