<svg width="24" height="24" viewBox="0 0 24 24" fill="none" xmlns="http://www.w3.org/2000/svg">
<path d="M10.356 11.2262L10.8864 10.6959L10.356 11.2262ZM12.7529 13.623L12.2225 14.1534L12.7529 13.623ZM16.6721 20.9079L16.8348 20.1758L16.6721 20.9079ZM3.07115 7.307L3.80329 7.1443L3.07115 7.307ZM9.19965 5.12007L9.72998 4.58974V4.58974L9.19965 5.12007ZM3.87451 4.54821L4.40484 5.07855L3.87451 4.54821ZM20.4518 19.0811L19.8995 18.5737L20.4518 19.0811ZM20.4518 16.3747L19.8995 16.8822L20.4518 16.3747ZM4.76085 3.66187L4.23052 3.13154V3.13154L4.76085 3.66187ZM4.89794 3.52731L5.4054 4.07957L4.89794 3.52731ZM7.74145 3.66187L7.21112 4.1922V4.1922L7.74145 3.66187ZM7.60436 3.52731L7.09691 4.07957L7.60436 3.52731ZM19.3639 9.57645H18.6139H19.3639ZM18.6139 10.1421C18.6139 10.5564 18.9497 10.8921 19.3639 10.8921C19.7782 10.8921 20.1139 10.5564 20.1139 10.1421H18.6139ZM13.7071 3.73529C13.2929 3.73529 12.9571 4.07107 12.9571 4.48529C12.9571 4.8995 13.2929 5.23529 13.7071 5.23529V3.73529ZM14.2728 4.48529V5.23529H14.2728L14.2728 4.48529ZM19.3634 9.41368L20.1134 9.40294L19.3634 9.41368ZM14.4355 4.4858L14.4463 3.73587H14.4463L14.4355 4.4858ZM19.7869 18.6879L18.9005 19.5742L19.9612 20.6349L20.8475 19.7486L19.7869 18.6879ZM4.40484 5.07855L5.29118 4.1922L4.23052 3.13154L3.34418 4.01788L4.40484 5.07855ZM18.3287 15.3098L19.7869 16.768L20.8475 15.7073L19.3893 14.2491L18.3287 15.3098ZM7.21112 4.1922L8.66932 5.6504L9.72998 4.58974L8.27178 3.13154L7.21112 4.1922ZM9.09033 7.87345C8.51387 9.19592 8.80562 10.7364 9.82572 11.7565L10.8864 10.6959C10.3024 10.1119 10.1353 9.22994 10.4654 8.47283L9.09033 7.87345ZM12.2225 14.1534C13.2426 15.1735 14.7832 15.4652 16.1056 14.8887L15.5062 13.5137C14.7491 13.8437 13.8672 13.6767 13.2832 13.0927L12.2225 14.1534ZM16.8348 20.1758C10.3294 18.7302 5.24892 13.6496 3.80329 7.1443L2.33901 7.4697C3.91098 14.5436 9.43551 20.0681 16.5094 21.6401L16.8348 20.1758ZM8.66932 5.6504C9.25332 6.2344 9.42035 7.11635 9.09033 7.87345L10.4654 8.47283C11.0418 7.15037 10.7501 5.60984 9.72998 4.58974L8.66932 5.6504ZM3.34418 4.01788C2.44107 4.921 2.06195 6.22292 2.33901 7.4697L3.80329 7.1443C3.63748 6.39816 3.86437 5.61902 4.40484 5.07855L3.34418 4.01788ZM18.9005 19.5742C18.3601 20.1147 17.5809 20.3416 16.8348 20.1758L16.5094 21.6401C17.7562 21.9171 19.0581 21.538 19.9612 20.6349L18.9005 19.5742ZM20.8475 19.7486C20.9128 19.6833 20.962 19.6343 21.004 19.5886L19.8995 18.5737C19.8843 18.5902 19.8629 18.6118 19.7869 18.6879L20.8475 19.7486ZM19.7869 16.768C19.8629 16.844 19.8843 16.8657 19.8995 16.8822L21.004 15.8673C20.962 15.8215 20.9128 15.7725 20.8475 15.7073L19.7869 16.768ZM21.004 19.5886C21.9708 18.5365 21.9708 16.9193 21.004 15.8673L19.8995 16.8822C20.3389 17.3604 20.3389 18.0955 19.8995 18.5737L21.004 19.5886ZM19.3893 14.2491C18.3692 13.229 16.8287 12.9372 15.5062 13.5137L16.1056 14.8887C16.8627 14.5587 17.7447 14.7258 18.3287 15.3098L19.3893 14.2491ZM5.29118 4.1922C5.36725 4.11614 5.38889 4.09474 5.4054 4.07957L4.39049 2.97505C4.34476 3.01707 4.29575 3.06632 4.23052 3.13154L5.29118 4.1922ZM8.27178 3.13154C8.20656 3.06632 8.15755 3.01707 8.11182 2.97505L7.09691 4.07957C7.11342 4.09474 7.13505 4.11613 7.21112 4.1922L8.27178 3.13154ZM5.4054 4.07957C5.88362 3.64014 6.61869 3.64014 7.09691 4.07957L8.11182 2.97505C7.05973 2.00832 5.44258 2.00832 4.39049 2.97505L5.4054 4.07957ZM9.82572 11.7565L12.2225 14.1534L13.2832 13.0927L10.8864 10.6959L9.82572 11.7565ZM18.6139 9.57645V10.1421H20.1139V9.57645H18.6139ZM13.7071 5.23529H14.2728V3.73529H13.7071V5.23529ZM20.1139 9.57645C20.1139 9.4944 20.114 9.44546 20.1134 9.40294L18.6135 9.42442C18.6139 9.4535 18.6139 9.48921 18.6139 9.57645H20.1139ZM14.2728 5.23529C14.36 5.23528 14.3957 5.2353 14.4248 5.23572L14.4463 3.73587C14.4038 3.73527 14.3548 3.73528 14.2728 3.73529L14.2728 5.23529ZM20.1134 9.40294C20.0688 6.29175 17.5575 3.78043 14.4463 3.73587L14.4248 5.23572C16.7244 5.26865 18.5806 7.12485 18.6135 9.42442L20.1134 9.40294Z" fill="#FAFAFA"/>
</svg>
