<svg width="24" height="24" viewBox="0 0 24 24" fill="none" xmlns="http://www.w3.org/2000/svg">
<path d="M6.08167 10C6.08167 9.44772 6.52938 9 7.08167 9H9.08167C9.63395 9 10.0817 9.44772 10.0817 10V12C10.0817 12.5523 9.63395 13 9.08167 13H7.08167C6.52938 13 6.08167 12.5523 6.08167 12V10Z" fill="#FAFAFA"/>
<path d="M8.68496 22.9598L8.59009 23.7038L8.68496 22.9598ZM4.25979 18.068L3.51999 18.1913L4.25979 18.068ZM4.52904 19.4392L5.2473 19.2234L4.52904 19.4392ZM15.9038 18.068L15.164 17.9447L15.9038 18.068ZM15.6345 19.4392L14.9163 19.2234L15.6345 19.4392ZM11.4786 22.9598L11.5735 23.7038L11.4786 22.9598ZM13.6975 5.23602L13.9252 4.52142L13.6975 5.23602ZM16.7666 12.8912L16.0268 12.7679L16.7666 12.8912ZM17.1282 9.28579L17.8705 9.17866L17.1282 9.28579ZM6.46603 5.23602L6.23832 4.52142L6.46603 5.23602ZM3.39697 12.8912L4.13677 12.7679L3.39697 12.8912ZM3.03536 9.28579L2.29305 9.17866L3.03536 9.28579ZM7.33178 12C7.33178 12.4142 7.66757 12.75 8.08178 12.75C8.496 12.75 8.83178 12.4142 8.83178 12H7.33178ZM8.08178 6H8.83178H8.08178ZM9.41096 3.33541C9.5962 3.70589 10.0467 3.85606 10.4172 3.67082C10.7877 3.48558 10.9378 3.03507 10.7526 2.66459L9.41096 3.33541ZM10.029 2.89443L10.6998 2.55902V2.55902L10.029 2.89443ZM10.029 1.10557L9.35818 0.770162L9.35818 0.770163L10.029 1.10557ZM10.7526 1.33541C10.9378 0.964928 10.7877 0.514423 10.4172 0.32918C10.0467 0.143938 9.59621 0.294105 9.41096 0.664589L10.7526 1.33541ZM5.41096 2.66459C5.22572 3.03507 5.37589 3.48558 5.74637 3.67082C6.11686 3.85606 6.56736 3.70589 6.7526 3.33541L5.41096 2.66459ZM6.13457 2.89443L5.46375 2.55902L5.46375 2.55902L6.13457 2.89443ZM6.13457 1.10557L5.46375 1.44098L5.46375 1.44098L6.13457 1.10557ZM6.7526 0.66459C6.56736 0.294106 6.11686 0.143938 5.74637 0.32918C5.37589 0.514421 5.22572 0.964926 5.41096 1.33541L6.7526 0.66459ZM13.411 2.66459C13.2257 3.03507 13.3759 3.48557 13.7464 3.67082C14.1169 3.85606 14.5674 3.7059 14.7526 3.33541L13.411 2.66459ZM14.1346 2.89443L14.8054 3.22984L14.8054 3.22984L14.1346 2.89443ZM14.1346 1.10557L13.4637 1.44098L13.4637 1.44098L14.1346 1.10557ZM14.7526 0.664591C14.5674 0.294107 14.1169 0.143938 13.7464 0.329179C13.3759 0.51442 13.2257 0.964925 13.411 1.33541L14.7526 0.664591ZM8.08178 5.01877L8.05517 4.26924L8.08178 5.01877ZM4.99958 17.9447L4.13677 12.7679L2.65718 13.0145L3.51999 18.1913L4.99958 17.9447ZM10.0818 22.25C9.33863 22.25 9.03588 22.2485 8.77983 22.2159L8.59009 23.7038C8.96394 23.7515 9.38244 23.75 10.0818 23.75V22.25ZM3.51999 18.1913C3.63496 18.8812 3.7023 19.2942 3.81078 19.6551L5.2473 19.2234C5.17299 18.9762 5.12176 18.6778 4.99958 17.9447L3.51999 18.1913ZM8.77983 22.2159C7.11467 22.0035 5.73049 20.831 5.2473 19.2234L3.81078 19.6551C4.46452 21.8301 6.33722 23.4165 8.59009 23.7038L8.77983 22.2159ZM15.164 17.9447C15.0418 18.6778 14.9906 18.9762 14.9163 19.2234L16.3528 19.6551C16.4613 19.2942 16.5286 18.8812 16.6436 18.1913L15.164 17.9447ZM10.0818 23.75C10.7811 23.75 11.1996 23.7515 11.5735 23.7038L11.3837 22.2159C11.1277 22.2485 10.8249 22.25 10.0818 22.25V23.75ZM14.9163 19.2234C14.4331 20.831 13.0489 22.0035 11.3837 22.2159L11.5735 23.7038C13.8263 23.4165 15.699 21.8301 16.3528 19.6551L14.9163 19.2234ZM10.0818 5.75C12.0593 5.75 12.8689 5.75914 13.4698 5.95062L13.9252 4.52142C13.0448 4.24086 11.9377 4.25 10.0818 4.25V5.75ZM13.4698 5.95062C15.0209 6.44487 16.1534 7.7817 16.3859 9.39292L17.8705 9.17866C17.5559 6.99877 16.0238 5.19012 13.9252 4.52142L13.4698 5.95062ZM4.13677 12.7679C3.81168 10.8173 3.68758 10.0171 3.77767 9.39292L2.29305 9.17866C2.16105 10.0933 2.35206 11.1837 2.65718 13.0145L4.13677 12.7679ZM6.23832 4.52142C4.13981 5.19012 2.60765 6.99877 2.29305 9.17866L3.77767 9.39292C4.0102 7.7817 5.14267 6.44487 6.69374 5.95062L6.23832 4.52142ZM19.3318 14C19.3318 15.2426 18.3244 16.25 17.0818 16.25V17.75C19.1529 17.75 20.8318 16.0711 20.8318 14H19.3318ZM17.0818 11.75C18.3244 11.75 19.3318 12.7574 19.3318 14H20.8318C20.8318 11.9289 19.1529 10.25 17.0818 10.25V11.75ZM8.83178 12L8.83178 6H7.33178L7.33178 12H8.83178ZM10.7526 2.66459L10.6998 2.55902L9.35818 3.22984L9.41096 3.33541L10.7526 2.66459ZM10.6998 1.44098L10.7526 1.33541L9.41096 0.664589L9.35818 0.770162L10.6998 1.44098ZM10.6998 2.55902C10.5239 2.20711 10.5239 1.79289 10.6998 1.44098L9.35818 0.770163C8.97108 1.54436 8.97108 2.45564 9.35818 3.22984L10.6998 2.55902ZM6.7526 3.33541L6.80539 3.22984L5.46375 2.55902L5.41096 2.66459L6.7526 3.33541ZM6.80539 0.770162L6.7526 0.66459L5.41096 1.33541L5.46375 1.44098L6.80539 0.770162ZM6.80539 3.22984C7.19249 2.45564 7.19249 1.54436 6.80539 0.770162L5.46375 1.44098C5.6397 1.79289 5.6397 2.20711 5.46375 2.55902L6.80539 3.22984ZM14.7526 3.33541L14.8054 3.22984L13.4638 2.55901L13.411 2.66459L14.7526 3.33541ZM14.8054 0.770163L14.7526 0.664591L13.411 1.33541L13.4637 1.44098L14.8054 0.770163ZM14.8054 3.22984C15.1925 2.45564 15.1925 1.54436 14.8054 0.770162L13.4637 1.44098C13.6397 1.79289 13.6397 2.20711 13.4637 2.55902L14.8054 3.22984ZM17.5064 13.0145C17.634 12.2488 17.7384 11.6227 17.8089 11.1003L16.3224 10.8997C16.2557 11.3939 16.1558 11.9939 16.0268 12.7679L17.5064 13.0145ZM17.8089 11.1003C17.9109 10.3442 17.9518 9.74155 17.8705 9.17866L16.3859 9.39292C16.4363 9.74231 16.42 10.1756 16.3224 10.8997L17.8089 11.1003ZM17.0818 10.25H17.0656V11.75H17.0818V10.25ZM17.0818 16.25C16.825 16.25 16.5798 16.2073 16.3518 16.1292L15.8655 17.5481C16.2479 17.6792 16.6574 17.75 17.0818 17.75V16.25ZM16.0268 12.7679L15.3689 16.7154L16.8485 16.962L17.5064 13.0145L16.0268 12.7679ZM15.3689 16.7154L15.164 17.9447L16.6436 18.1913L16.8485 16.962L15.3689 16.7154ZM10.0818 4.25C9.2625 4.25 8.60019 4.24989 8.05517 4.26924L8.10839 5.7683C8.62078 5.75011 9.25254 5.75 10.0818 5.75V4.25ZM8.05517 4.26924C7.3353 4.2948 6.75998 4.35519 6.23832 4.52142L6.69374 5.95062C7.01639 5.8478 7.42682 5.7925 8.10839 5.7683L8.05517 4.26924ZM8.83178 6V5.01877H7.33178V6H8.83178Z" fill="#FAFAFA"/>
</svg>
