<svg width="24" height="24" viewBox="0 0 24 24" fill="none" xmlns="http://www.w3.org/2000/svg">
<path d="M12 7V13M12 21C7.45283 21 5.17925 21 3.86492 20.0451C2.71851 19.2122 1.97936 17.9319 1.83124 16.5226C1.66142 14.9069 2.79821 12.938 5.07179 9C7.34538 5.06204 8.48217 3.09306 9.96632 2.43227C11.2608 1.85591 12.7391 1.85591 14.0337 2.43227C15.5178 3.09306 16.6546 5.06204 18.9282 9C21.2018 12.938 22.3386 14.9069 22.1688 16.5226C22.0206 17.9319 21.2815 19.2122 20.1351 20.0451C18.8208 21 16.5472 21 12 21Z" stroke="#FAFAFA" stroke-width="1.5" stroke-linecap="round"/>
<path d="M13 16C13 16.5523 12.5523 17 12 17C11.4477 17 11 16.5523 11 16C11 15.4477 11.4477 15 12 15C12.5523 15 13 15.4477 13 16Z" fill="#FAFAFA"/>
</svg>
