<svg width="24" height="24" viewBox="0 0 24 24" fill="none" xmlns="http://www.w3.org/2000/svg">
<path d="M20.2501 7.23677C21.5237 9.44278 22.1605 10.5458 22.2204 11.752C22.2286 11.9172 22.2286 12.0827 22.2204 12.2479C22.1605 13.454 21.5237 14.557 20.2501 16.7631C18.9764 18.9691 18.3396 20.0721 17.3249 20.727C17.186 20.8167 17.0427 20.8995 16.8955 20.975C15.821 21.5262 14.5473 21.5262 12.0001 21.5262C9.45278 21.5262 8.17913 21.5262 7.1046 20.975C6.95744 20.8995 6.81412 20.8167 6.67516 20.727C5.66052 20.0721 5.0237 18.9691 3.75006 16.7631C2.47642 14.557 1.8396 13.454 1.77971 12.2478C1.77151 12.0827 1.77151 11.9172 1.77971 11.752C1.8396 10.5458 2.47642 9.44278 3.75006 7.23677C5.0237 5.03076 5.66052 3.92776 6.67516 3.2728C6.81412 3.1831 6.95744 3.10036 7.1046 3.02486C8.17914 2.47363 9.45278 2.47363 12.0001 2.47363C14.5473 2.47363 15.821 2.47363 16.8955 3.02486C17.0427 3.10036 17.186 3.1831 17.325 3.2728C18.3396 3.92776 18.9764 5.03076 20.2501 7.23677Z" stroke="#FAFAFA" stroke-width="1.5"/>
<path d="M10.0161 11.1038C10.2192 10.6106 10.6108 10.219 11.104 10.016L13.7808 8.91371C14.6028 8.57527 15.4247 9.3972 15.0863 10.2191L13.984 12.896C13.7809 13.3892 13.3893 13.7808 12.8962 13.9839L10.2193 15.0861C9.39735 15.4246 8.57541 14.6026 8.91386 13.7807L10.0161 11.1038Z" stroke="#FAFAFA" stroke-width="1.5"/>
</svg>
