<svg width="24" height="24" viewBox="0 0 24 24" fill="none" xmlns="http://www.w3.org/2000/svg">
<path d="M18.6883 3.4634L19.0036 2.78291L18.6883 3.4634ZM20.8269 5.35133L21.463 4.95403L20.8269 5.35133ZM3.17307 5.35133L2.53695 4.95403L3.17307 5.35133ZM5.31168 3.4634L4.99635 2.78291L5.31168 3.4634ZM4.22935 18.3673L4.59453 17.7122H4.59453L4.22935 18.3673ZM2.02838 15.874L1.33305 16.1551L2.02838 15.874ZM19.7706 18.3673L19.4054 17.7122L19.7706 18.3673ZM21.9716 15.874L22.6669 16.1551L21.9716 15.874ZM7.81808 22.2724C7.41623 22.3729 7.17191 22.7801 7.27237 23.1819C7.37283 23.5837 7.78003 23.8281 8.18188 23.7276L7.81808 22.2724ZM9.57462 22.6063L9.39272 21.8787L9.57462 22.6063ZM14.4253 22.6063L14.6072 21.8787L14.4253 22.6063ZM15.8181 23.7276C16.2199 23.8281 16.6271 23.5837 16.7276 23.1819C16.828 22.7801 16.5837 22.3729 16.1819 22.2724L15.8181 23.7276ZM12.75 19C12.75 18.5858 12.4142 18.25 12 18.25C11.5858 18.25 11.25 18.5858 11.25 19H12.75ZM12 22.3078V23.0578V22.3078ZM13.9377 18.25H10.0622V19.75H13.9377V18.25ZM10.0622 3.75H13.9377V2.25H10.0622V3.75ZM13.9377 3.75C15.1995 3.75 16.1033 3.75052 16.8179 3.8057C17.5231 3.86016 17.9865 3.9648 18.3729 4.14389L19.0036 2.78291C18.3901 2.4986 17.7283 2.37154 16.9334 2.31015C16.1477 2.24948 15.1763 2.25 13.9377 2.25V3.75ZM22.6202 9.9147C22.4665 8.68564 22.3465 7.72169 22.1889 6.94964C22.0294 6.16844 21.8212 5.52758 21.463 4.95403L20.1908 5.74863C20.4164 6.10991 20.5777 6.55673 20.7192 7.24975C20.8626 7.95193 20.9752 8.84876 21.1317 10.1007L22.6202 9.9147ZM18.3729 4.14389C19.1219 4.49093 19.7535 5.04854 20.1908 5.74863L21.463 4.95403C20.8714 4.00685 20.0168 3.25244 19.0036 2.78291L18.3729 4.14389ZM2.86822 10.1007C3.02472 8.84876 3.13735 7.95193 3.28073 7.24975C3.42224 6.55673 3.58355 6.10991 3.80919 5.74863L2.53695 4.95403C2.17873 5.52758 1.97058 6.16844 1.81106 6.94964C1.65341 7.72169 1.53344 8.68564 1.3798 9.9147L2.86822 10.1007ZM10.0622 2.25C8.82362 2.25 7.85223 2.24948 7.06659 2.31015C6.27163 2.37154 5.6099 2.4986 4.99635 2.78291L5.62701 4.14389C6.01349 3.9648 6.47686 3.86016 7.18208 3.8057C7.89663 3.75052 8.8005 3.75 10.0622 3.75V2.25ZM3.80919 5.74863C4.24644 5.04854 4.8781 4.49093 5.62701 4.14389L4.99635 2.78291C3.98311 3.25244 3.12852 4.00685 2.53695 4.95403L3.80919 5.74863ZM10.0622 18.25C8.48317 18.25 7.34633 18.2494 6.46088 18.1736C5.58299 18.0986 5.02876 17.9542 4.59453 17.7122L3.86417 19.0224C4.56499 19.413 5.36125 19.5851 6.33307 19.6682C7.29733 19.7506 8.50941 19.75 10.0622 19.75V18.25ZM1.3798 9.9147C1.1872 11.4555 1.03622 12.6582 0.998446 13.6252C0.960372 14.5998 1.03232 15.4113 1.33305 16.1551L2.7237 15.5929C2.53737 15.132 2.46291 14.5642 2.4973 13.6838C2.53199 12.7958 2.67236 11.6676 2.86822 10.1007L1.3798 9.9147ZM4.59453 17.7122C3.74738 17.2399 3.08723 16.4921 2.7237 15.5929L1.33305 16.1551C1.82488 17.3717 2.71802 18.3834 3.86417 19.0224L4.59453 17.7122ZM13.9377 19.75C15.4905 19.75 16.7026 19.7506 17.6669 19.6682C18.6387 19.5851 19.435 19.413 20.1358 19.0224L19.4054 17.7122C18.9712 17.9542 18.417 18.0986 17.5391 18.1736C16.6536 18.2494 15.5168 18.25 13.9377 18.25V19.75ZM21.1317 10.1007C21.3276 11.6676 21.468 12.7958 21.5027 13.6838C21.537 14.5642 21.4626 15.132 21.2763 15.5929L22.6669 16.1551C22.9676 15.4113 23.0396 14.5998 23.0015 13.6252C22.9637 12.6582 22.8128 11.4555 22.6202 9.9147L21.1317 10.1007ZM20.1358 19.0224C21.2819 18.3834 22.1751 17.3717 22.6669 16.1551L21.2763 15.5929C20.9127 16.4921 20.2526 17.2399 19.4054 17.7122L20.1358 19.0224ZM8.18188 23.7276L9.75652 23.3339L9.39272 21.8787L7.81808 22.2724L8.18188 23.7276ZM14.2434 23.3339L15.8181 23.7276L16.1819 22.2724L14.6072 21.8787L14.2434 23.3339ZM12.75 22V19H11.25V22H12.75ZM9.75652 23.3339C10.493 23.1498 11.2465 23.0578 12 23.0578V21.5578C11.1243 21.5578 10.2486 21.6648 9.39272 21.8787L9.75652 23.3339ZM12 23.0578C12.7535 23.0578 13.5069 23.1498 14.2434 23.3339L14.6072 21.8787C13.7513 21.6648 12.8756 21.5578 12 21.5578V23.0578ZM11.25 22V22.3078H12.75V22H11.25Z" fill="#FAFAFA"/>
</svg>
