<svg width="24" height="24" viewBox="0 0 24 24" fill="none" xmlns="http://www.w3.org/2000/svg">
<path d="M12.7499 3C12.7499 2.58579 12.4141 2.25 11.9999 2.25C11.5857 2.25 11.2499 2.58579 11.2499 3L12.7499 3ZM11.2499 14C11.2499 14.4142 11.5857 14.75 11.9999 14.75C12.4141 14.75 12.7499 14.4142 12.7499 14H11.2499ZM14.8646 14V13.25V14ZM16.4494 17.22L15.8551 16.7625L16.4494 17.22ZM7.55046 17.22L8.14477 16.7625L7.55046 17.22ZM9.13528 14V14.75V14ZM10.4151 20.9413L9.8208 21.3987V21.3988L10.4151 20.9413ZM13.5847 20.9413L14.179 21.3988L13.5847 20.9413ZM11.2499 3L11.2499 14H12.7499L12.7499 3L11.2499 3ZM11.0094 20.4838L8.14477 16.7625L6.95616 17.6775L9.8208 21.3987L11.0094 20.4838ZM9.13528 14.75H14.8646V13.25H9.13528V14.75ZM15.8551 16.7625L12.9904 20.4838L14.179 21.3988L17.0437 17.6775L15.8551 16.7625ZM14.8646 14.75C15.9019 14.75 16.4878 15.9405 15.8551 16.7625L17.0437 17.6775C18.4357 15.8692 17.1466 13.25 14.8646 13.25V14.75ZM8.14477 16.7625C7.51202 15.9405 8.09798 14.75 9.13528 14.75V13.25C6.85322 13.25 5.56412 15.8692 6.95616 17.6775L8.14477 16.7625ZM9.8208 21.3988C10.9216 22.8288 13.0782 22.8288 14.179 21.3988L12.9904 20.4838C12.49 21.1338 11.5098 21.1338 11.0094 20.4838L9.8208 21.3988Z" fill="#FAFAFA"/>
</svg>
