<svg width="24" height="24" viewBox="0 0 24 24" fill="none" xmlns="http://www.w3.org/2000/svg">
<path d="M10.2629 3.15664L10.1287 2.41873L10.2629 3.15664ZM13.7371 3.15664L13.8713 2.41873L13.7371 3.15664ZM21.6034 14.1514L20.8617 14.0401V14.0401L21.6034 14.1514ZM2.39658 14.1514L3.13829 14.0401L2.39658 14.1514ZM7.4 21.4408L7.93033 21.9711H7.93033L7.4 21.4408ZM6.46967 21.3105C6.17678 21.6034 6.17678 22.0782 6.46967 22.3711C6.76256 22.664 7.23744 22.664 7.53033 22.3711L6.46967 21.3105ZM7.53033 13.3105C7.23744 13.0176 6.76256 13.0176 6.46967 13.3105C6.17678 13.6034 6.17678 14.0782 6.46967 14.3711L7.53033 13.3105ZM7.4 14.2408L6.86967 14.7711L6.86967 14.7711L7.4 14.2408ZM7.51473 21.3253L8.0526 21.848L8.0526 21.848L7.51473 21.3253ZM7.51473 14.3563L8.0526 13.8336L8.0526 13.8336L7.51473 14.3563ZM16.6 21.4408L17.1303 20.9105L16.6 21.4408ZM16.4697 22.3711C16.7626 22.664 17.2374 22.664 17.5303 22.3711C17.8232 22.0782 17.8232 21.6034 17.5303 21.3105L16.4697 22.3711ZM17.5303 14.3711C17.8232 14.0782 17.8232 13.6034 17.5303 13.3105C17.2374 13.0176 16.7626 13.0176 16.4697 13.3105L17.5303 14.3711ZM16.6 14.2408L17.1303 14.7711L17.1303 14.7711L16.6 14.2408ZM16.4853 21.3253L15.9474 21.848V21.848L16.4853 21.3253ZM16.4853 14.3563L15.9474 13.8336L15.9474 13.8336L16.4853 14.3563ZM21.4909 14.9015L21.3074 15.6287L21.4909 14.9015ZM10.397 3.89454C11.457 3.70182 12.543 3.70182 13.603 3.89454L13.8713 2.41873C12.6339 2.19376 11.3661 2.19376 10.1287 2.41873L10.397 3.89454ZM22.3451 14.2626C23.1834 8.67386 19.4314 3.42967 13.8713 2.41873L13.603 3.89454C18.3658 4.76051 21.5798 9.25273 20.8617 14.0401L22.3451 14.2626ZM3.13829 14.0401C2.42018 9.25273 5.63419 4.76051 10.397 3.89454L10.1287 2.41873C4.56859 3.42967 0.816569 8.67386 1.65488 14.2626L3.13829 14.0401ZM6.86967 20.9105L6.46967 21.3105L7.53033 22.3711L7.93033 21.9711L6.86967 20.9105ZM6.46967 14.3711L6.86967 14.7711L7.93033 13.7105L7.53033 13.3105L6.46967 14.3711ZM7.93033 21.9711C7.98835 21.9131 8.02297 21.8785 8.0526 21.848L6.97686 20.8027C6.9566 20.8235 6.93136 20.8488 6.86967 20.9105L7.93033 21.9711ZM6.86967 14.7711C6.93136 14.8328 6.9566 14.8581 6.97686 14.8789L8.0526 13.8336C8.02297 13.8031 7.98835 13.7685 7.93033 13.7105L6.86967 14.7711ZM8.0526 21.848C10.221 19.6166 10.221 16.065 8.0526 13.8336L6.97686 14.8789C8.57962 16.5283 8.57962 19.1533 6.97686 20.8027L8.0526 21.848ZM16.0697 21.9711L16.4697 22.3711L17.5303 21.3105L17.1303 20.9105L16.0697 21.9711ZM16.4697 13.3105L16.0697 13.7105L17.1303 14.7711L17.5303 14.3711L16.4697 13.3105ZM17.1303 20.9105C17.0686 20.8488 17.0434 20.8235 17.0231 20.8027L15.9474 21.848C15.977 21.8785 16.0116 21.9131 16.0697 21.9711L17.1303 20.9105ZM16.0697 13.7105C16.0117 13.7685 15.977 13.8031 15.9474 13.8336L17.0231 14.8789C17.0434 14.8581 17.0686 14.8328 17.1303 14.7711L16.0697 13.7105ZM17.0231 20.8027C15.4204 19.1533 15.4204 16.5283 17.0231 14.8789L15.9474 13.8336C13.779 16.065 13.779 19.6166 15.9474 21.848L17.0231 20.8027ZM22.25 16.8408V18.8408H23.75V16.8408H22.25ZM19.75 18.8408V16.8408H18.25V18.8408H19.75ZM21 20.0908C20.3096 20.0908 19.75 19.5312 19.75 18.8408H18.25C18.25 20.3596 19.4812 21.5908 21 21.5908V20.0908ZM22.25 18.8408C22.25 19.5312 21.6904 20.0908 21 20.0908V21.5908C22.5188 21.5908 23.75 20.3596 23.75 18.8408H22.25ZM21 14.0908C19.4812 14.0908 18.25 15.322 18.25 16.8408H19.75C19.75 16.1504 20.3096 15.5908 21 15.5908V14.0908ZM4.25 16.8408V18.8408H5.75V16.8408H4.25ZM1.75 18.8408V16.8408H0.25V18.8408H1.75ZM3 20.0908C2.30964 20.0908 1.75 19.5312 1.75 18.8408H0.25C0.25 20.3596 1.48122 21.5908 3 21.5908V20.0908ZM4.25 18.8408C4.25 19.5312 3.69036 20.0908 3 20.0908V21.5908C4.51878 21.5908 5.75 20.3596 5.75 18.8408H4.25ZM3 15.5908C3.69036 15.5908 4.25 16.1504 4.25 16.8408H5.75C5.75 15.322 4.51878 14.0908 3 14.0908V15.5908ZM3 14.0908C2.76825 14.0908 2.54217 14.1196 2.3256 14.1743L2.69261 15.6287C2.79017 15.6041 2.893 15.5908 3 15.5908V14.0908ZM2.3256 14.1743C1.13327 14.4752 0.25 15.5539 0.25 16.8408H1.75C1.75 16.2573 2.15048 15.7655 2.69261 15.6287L2.3256 14.1743ZM3.25081 14.7902L3.13829 14.0401L1.65488 14.2626L1.7674 15.0127L3.25081 14.7902ZM21 15.5908C21.107 15.5908 21.2098 15.6041 21.3074 15.6287L21.6744 14.1743C21.4578 14.1196 21.2318 14.0908 21 14.0908V15.5908ZM21.3074 15.6287C21.8495 15.7655 22.25 16.2573 22.25 16.8408H23.75C23.75 15.5539 22.8667 14.4752 21.6744 14.1743L21.3074 15.6287ZM20.8617 14.0401L20.7492 14.7902L22.2326 15.0127L22.3451 14.2626L20.8617 14.0401Z" fill="#FAFAFA"/>
</svg>
