<svg width="24" height="24" viewBox="0 0 24 24" fill="none" xmlns="http://www.w3.org/2000/svg">
<path d="M22.0001 12.7499C22.4143 12.7499 22.7501 12.4141 22.7501 11.9999C22.7501 11.5857 22.4143 11.2499 22.0001 11.2499V12.7499ZM11.0001 11.2499C10.5859 11.2499 10.2501 11.5857 10.2501 11.9999C10.2501 12.4141 10.5859 12.7499 11.0001 12.7499V11.2499ZM11.0001 14.8646H10.2501H11.0001ZM7.7801 16.4494L8.2376 15.8551L7.7801 16.4494ZM7.7801 7.55046L8.2376 8.14477L7.7801 7.55046ZM11.0001 9.13528H11.7501H11.0001ZM4.05882 10.4151L4.51632 11.0094L4.05882 10.4151ZM4.05882 13.5847L3.60132 14.179L4.05882 13.5847ZM22.0001 11.2499L11.0001 11.2499V12.7499L22.0001 12.7499V11.2499ZM4.51632 11.0094L8.2376 8.14477L7.32261 6.95616L3.60132 9.8208L4.51632 11.0094ZM10.2501 9.13528L10.2501 14.8646H11.7501V9.13528H10.2501ZM8.2376 15.8551L4.51632 12.9904L3.60132 14.179L7.3226 17.0437L8.2376 15.8551ZM10.2501 14.8646C10.2501 15.9019 9.05956 16.4878 8.2376 15.8551L7.3226 17.0437C9.13092 18.4357 11.7501 17.1466 11.7501 14.8646H10.2501ZM8.2376 8.14477C9.05956 7.51202 10.2501 8.09798 10.2501 9.13528H11.7501C11.7501 6.85322 9.13092 5.56412 7.32261 6.95616L8.2376 8.14477ZM3.60132 9.8208C2.1713 10.9216 2.1713 13.0782 3.60132 14.179L4.51632 12.9904C3.86631 12.49 3.86631 11.5098 4.51632 11.0094L3.60132 9.8208Z" fill="#FAFAFA"/>
</svg>
