<svg width="24" height="24" viewBox="0 0 24 24" fill="none" xmlns="http://www.w3.org/2000/svg">
<path d="M15.5879 8.4833L15.786 9.20667L15.5879 8.4833ZM17.125 8.06243L17.3231 8.7858L17.3301 8.78387L17.3371 8.78181L17.125 8.06243ZM20.5663 7.04767L20.3542 6.3283L20.5663 7.04767ZM18 3.75C18.4142 3.75 18.75 3.41421 18.75 3C18.75 2.58579 18.4142 2.25 18 2.25V3.75ZM2 2.25C1.58579 2.25 1.25 2.58579 1.25 3C1.25 3.41421 1.58579 3.75 2 3.75V2.25ZM10 9.75C10.4142 9.75 10.75 9.41421 10.75 9C10.75 8.58579 10.4142 8.25 10 8.25V9.75ZM2 8.25C1.58579 8.25 1.25 8.58579 1.25 9C1.25 9.41421 1.58579 9.75 2 9.75V8.25ZM8 15.75C8.41421 15.75 8.75 15.4142 8.75 15C8.75 14.5858 8.41421 14.25 8 14.25V15.75ZM2 14.25C1.58579 14.25 1.25 14.5858 1.25 15C1.25 15.4142 1.58579 15.75 2 15.75V14.25ZM6 21.75C6.41421 21.75 6.75 21.4142 6.75 21C6.75 20.5858 6.41421 20.25 6 20.25V21.75ZM2 20.25C1.58579 20.25 1.25 20.5858 1.25 21C1.25 21.4142 1.58579 21.75 2 21.75V20.25ZM9.25 18.8437C9.25 20.4786 10.6235 21.75 12.25 21.75V20.25C11.3912 20.25 10.75 19.5906 10.75 18.8437H9.25ZM12.25 21.75C13.8765 21.75 15.25 20.4786 15.25 18.8437H13.75C13.75 19.5906 13.1088 20.25 12.25 20.25V21.75ZM15.25 18.8437C15.25 17.2089 13.8765 15.9375 12.25 15.9375V17.4375C13.1088 17.4375 13.75 18.0968 13.75 18.8437H15.25ZM12.25 15.9375C10.6235 15.9375 9.25 17.2089 9.25 18.8437H10.75C10.75 18.0968 11.3912 17.4375 12.25 17.4375V15.9375ZM16.75 16.6875C16.75 18.3223 18.1235 19.5937 19.75 19.5937V18.0937C18.8912 18.0937 18.25 17.4344 18.25 16.6875H16.75ZM19.75 19.5937C21.3765 19.5937 22.75 18.3223 22.75 16.6875H21.25C21.25 17.4344 20.6088 18.0937 19.75 18.0937V19.5937ZM22.75 16.6875C22.75 15.0526 21.3765 13.7812 19.75 13.7812V15.2812C20.6088 15.2812 21.25 15.9406 21.25 16.6875H22.75ZM19.75 13.7812C18.1235 13.7812 16.75 15.0526 16.75 16.6875H18.25C18.25 15.9406 18.8912 15.2812 19.75 15.2812V13.7812ZM13.75 12.375V18.8437H15.25V12.375H13.75ZM21.25 10.2187V16.6875H22.75V10.2187H21.25ZM14.7072 13.0958L22.2072 10.9395L21.7928 9.49789L14.2928 11.6542L14.7072 13.0958ZM15.25 12.375V9.8655H13.75V12.375H15.25ZM15.786 9.20667L17.3231 8.7858L16.9269 7.33906L15.3899 7.75993L15.786 9.20667ZM17.3371 8.78181L20.7785 7.76705L20.3542 6.3283L16.9129 7.34305L17.3371 8.78181ZM21.25 8.06243V10.2187H22.75V8.06243H21.25ZM20.7785 7.76705C21.0526 7.68622 21.25 7.89215 21.25 8.06243H22.75C22.75 6.80406 21.5049 5.98898 20.3542 6.3283L20.7785 7.76705ZM15.25 9.8655C15.25 9.58036 15.4495 9.2988 15.786 9.20667L15.3899 7.75993C14.4384 8.02044 13.75 8.867 13.75 9.8655H15.25ZM18 2.25H2V3.75H18V2.25ZM10 8.25H2V9.75H10V8.25ZM8 14.25H2V15.75H8V14.25ZM6 20.25H2V21.75H6V20.25Z" fill="#FAFAFA"/>
</svg>
