<svg width="24" height="24" viewBox="0 0 24 24" fill="none" xmlns="http://www.w3.org/2000/svg">
<path d="M11.4506 4.06371L11.6566 4.78485L11.4506 4.06371ZM13.5 3.47816L13.706 4.1993L13.7133 4.19722L13.7206 4.19499L13.5 3.47816ZM18.0884 2.06633L17.8679 1.34949L17.8679 1.34949L18.0884 2.06633ZM3.25 18.4782C3.25 20.5492 4.92893 22.2282 7 22.2282V20.7282C5.75736 20.7282 4.75 19.7208 4.75 18.4782H3.25ZM7 22.2282C9.07107 22.2282 10.75 20.5492 10.75 18.4782H9.25C9.25 19.7208 8.24264 20.7282 7 20.7282V22.2282ZM10.75 18.4782C10.75 16.4071 9.07107 14.7282 7 14.7282V16.2282C8.24264 16.2282 9.25 17.2355 9.25 18.4782H10.75ZM7 14.7282C4.92893 14.7282 3.25 16.4071 3.25 18.4782H4.75C4.75 17.2355 5.75736 16.2282 7 16.2282V14.7282ZM13.25 15.4782C13.25 17.5492 14.9289 19.2282 17 19.2282V17.7282C15.7574 17.7282 14.75 16.7208 14.75 15.4782H13.25ZM17 19.2282C19.0711 19.2282 20.75 17.5492 20.75 15.4782H19.25C19.25 16.7208 18.2426 17.7282 17 17.7282V19.2282ZM20.75 15.4782C20.75 13.4071 19.0711 11.7282 17 11.7282V13.2282C18.2426 13.2282 19.25 14.2355 19.25 15.4782H20.75ZM17 11.7282C14.9289 11.7282 13.25 13.4071 13.25 15.4782H14.75C14.75 14.2355 15.7574 13.2282 17 13.2282V11.7282ZM9.25 9.47816V18.4782H10.75V9.47816H9.25ZM19.25 6.47816V15.4782H20.75V6.47816H19.25ZM10.2155 10.1965L20.2155 7.19653L19.7845 5.75979L9.78449 8.75979L10.2155 10.1965ZM10.75 9.47816V5.98676H9.25V9.47816H10.75ZM11.6566 4.78485L13.706 4.1993L13.294 2.75701L11.2445 3.34257L11.6566 4.78485ZM13.7206 4.19499L18.309 2.78316L17.8679 1.34949L13.2794 2.76132L13.7206 4.19499ZM19.25 3.47816V6.47816H20.75V3.47816H19.25ZM18.309 2.78316C18.7766 2.63929 19.25 2.98893 19.25 3.47816H20.75C20.75 1.97972 19.3001 0.908824 17.8679 1.34949L18.309 2.78316ZM10.75 5.98676C10.75 5.42866 11.12 4.93818 11.6566 4.78485L11.2445 3.34257C10.0639 3.67988 9.25 4.75894 9.25 5.98676H10.75Z" fill="#FAFAFA"/>
</svg>
