<svg width="24" height="24" viewBox="0 0 24 24" fill="none" xmlns="http://www.w3.org/2000/svg">
<path d="M11 12V11.25V12ZM16.3292 13.6646C16.1439 14.0351 16.2941 14.4856 16.6646 14.6708C17.0351 14.8561 17.4856 14.7059 17.6708 14.3354L16.3292 13.6646ZM17.0528 13.8944L17.7236 14.2298L17.7236 14.2298L17.0528 13.8944ZM13.3292 13.6646C13.1439 14.0351 13.2941 14.4856 13.6646 14.6708C14.0351 14.8561 14.4856 14.7059 14.6708 14.3354L13.3292 13.6646ZM14.0528 13.8944L14.7236 14.2298L14.7236 14.2298L14.0528 13.8944ZM14.0528 12.1056L14.7236 11.7702L14.7236 11.7702L14.0528 12.1056ZM14.6708 11.6646C14.4856 11.2941 14.0351 11.1439 13.6646 11.3292C13.2941 11.5144 13.1439 11.9649 13.3292 12.3354L14.6708 11.6646ZM10.8514 11.6286L11.5478 11.3501L10.8514 11.6286ZM10.8514 12.3714L11.5478 12.6499L10.8514 12.3714ZM10.4514 13.3714L9.75509 13.0928H9.75509L10.4514 13.3714ZM10.4514 10.6286L9.75509 10.9072H9.75509L10.4514 10.6286ZM16.882 12V11.25V12ZM21.25 12C21.25 17.1086 17.1086 21.25 12 21.25V22.75C17.9371 22.75 22.75 17.9371 22.75 12H21.25ZM12 21.25C6.89137 21.25 2.75 17.1086 2.75 12H1.25C1.25 17.9371 6.06294 22.75 12 22.75V21.25ZM2.75 12C2.75 6.89137 6.89137 2.75 12 2.75V1.25C6.06294 1.25 1.25 6.06294 1.25 12H2.75ZM12 2.75C17.1086 2.75 21.25 6.89137 21.25 12H22.75C22.75 6.06294 17.9371 1.25 12 1.25V2.75ZM11 12.75L16.882 12.75V11.25L11 11.25V12.75ZM17.6708 14.3354L17.7236 14.2298L16.382 13.559L16.3292 13.6646L17.6708 14.3354ZM17.7236 14.2298C18.1107 13.4556 18.1107 12.5444 17.7236 11.7702L16.382 12.441C16.5579 12.7929 16.5579 13.2071 16.382 13.559L17.7236 14.2298ZM14.6708 14.3354L14.7236 14.2298L13.382 13.559L13.3292 13.6646L14.6708 14.3354ZM14.7236 11.7702L14.6708 11.6646L13.3292 12.3354L13.382 12.441L14.7236 11.7702ZM14.7236 14.2298C15.1107 13.4556 15.1107 12.5444 14.7236 11.7702L13.382 12.441C13.5579 12.7929 13.5579 13.2071 13.382 13.559L14.7236 14.2298ZM8 10.75H9.52297V9.25H8V10.75ZM9.52297 13.25H8V14.75H9.52297V13.25ZM7.75 13V11H6.25V13H7.75ZM9.75509 10.9072L10.1551 11.9072L11.5478 11.3501L11.1478 10.3501L9.75509 10.9072ZM10.1551 12.0928L9.75509 13.0928L11.1478 13.6499L11.5478 12.6499L10.1551 12.0928ZM8 13.25C7.86193 13.25 7.75 13.1381 7.75 13H6.25C6.25 13.9665 7.0335 14.75 8 14.75V13.25ZM9.52297 14.75C10.2386 14.75 10.882 14.3143 11.1478 13.6499L9.75509 13.0928C9.71712 13.1878 9.62519 13.25 9.52297 13.25V14.75ZM9.52297 10.75C9.62519 10.75 9.71712 10.8122 9.75509 10.9072L11.1478 10.3501C10.882 9.68566 10.2385 9.25 9.52297 9.25V10.75ZM8 9.25C7.0335 9.25 6.25 10.0335 6.25 11H7.75C7.75 10.8619 7.86193 10.75 8 10.75V9.25ZM10.1551 11.9072C10.167 11.937 10.173 11.9684 10.173 12H11.673C11.673 11.7794 11.6312 11.5587 11.5478 11.3501L10.1551 11.9072ZM10.173 12C10.173 12.0316 10.167 12.063 10.1551 12.0928L11.5478 12.6499C11.6312 12.4413 11.673 12.2206 11.673 12H10.173ZM11 11.25H10.923V12.75H11V11.25ZM16.882 12.75C16.6702 12.75 16.4767 12.6304 16.382 12.441L17.7236 11.7702C17.5642 11.4514 17.2384 11.25 16.882 11.25V12.75Z" fill="#FAFAFA"/>
</svg>
