<svg width="24" height="24" viewBox="0 0 24 24" fill="none" xmlns="http://www.w3.org/2000/svg">
<path d="M3.02486 7.10448L3.69218 7.44681L3.02486 7.10448ZM3.2728 6.67504L3.90293 7.08179L3.2728 6.67504ZM3.2728 17.3248L3.90293 16.9181H3.90293L3.2728 17.3248ZM3.02486 16.8954L3.69218 16.5531L3.02486 16.8954ZM12.2478 22.2203L12.285 22.9694L12.2478 22.2203ZM11.752 22.2203L11.7148 22.9694L11.752 22.2203ZM20.975 16.8954L20.3076 16.5531L20.975 16.8954ZM20.727 17.3248L20.0969 16.9181L20.727 17.3248ZM20.727 6.67504L20.0969 7.08179L20.727 6.67504ZM20.975 7.10448L20.3076 7.44681L20.975 7.10448ZM12.2478 1.77959L12.285 1.03051L12.2478 1.77959ZM11.752 1.77959L11.7148 1.03051L11.752 1.77959ZM16.3291 13.6645C16.1439 14.035 16.294 14.4855 16.6645 14.6708C17.035 14.856 17.4855 14.7058 17.6707 14.3353L16.3291 13.6645ZM13.3291 13.6645C13.1439 14.035 13.294 14.4855 13.6645 14.6708C14.035 14.856 14.4855 14.7058 14.6707 14.3353L13.3291 13.6645ZM14.0527 12.1055L14.7235 11.7701L14.7235 11.7701L14.0527 12.1055ZM14.6707 11.6645C14.4855 11.294 14.035 11.1439 13.6645 11.3291C13.294 11.5144 13.1438 11.9649 13.3291 12.3353L14.6707 11.6645ZM10.8514 11.6285L11.5477 11.35L10.8514 11.6285ZM10.8514 12.3713L11.5477 12.6499L10.8514 12.3713ZM10.4514 13.3713L9.755 13.0928H9.755L10.4514 13.3713ZM10.4514 10.6285L9.755 10.9071H9.755L10.4514 10.6285ZM10.9229 11.9999H10.1729H10.9229ZM3.22363 11.9999C3.22363 10.7131 3.22432 9.7968 3.28956 9.06668C3.35352 8.35086 3.4761 7.86803 3.69218 7.44681L2.35755 6.76215C2.0224 7.41546 1.86936 8.10672 1.79551 8.93318C1.72294 9.74533 1.72363 10.7394 1.72363 11.9999H3.22363ZM6.86177 3.10042C5.77015 3.73066 4.90888 4.22712 4.24182 4.69604C3.56301 5.17323 3.04089 5.65139 2.64268 6.26829L3.90293 7.08179C4.15967 6.68405 4.51653 6.33648 5.10446 5.92318C5.70414 5.50162 6.49738 5.04285 7.61177 4.39945L6.86177 3.10042ZM3.69218 7.44681C3.75635 7.32173 3.82668 7.1999 3.90293 7.08179L2.64268 6.26829C2.53952 6.4281 2.44436 6.59292 2.35755 6.76215L3.69218 7.44681ZM7.61177 19.6004C6.49738 18.957 5.70414 18.4983 5.10446 18.0767C4.51653 17.6634 4.15967 17.3158 3.90293 16.9181L2.64268 17.7316C3.04089 18.3485 3.56301 18.8266 4.24182 19.3038C4.90888 19.7727 5.77015 20.2692 6.86177 20.8995L7.61177 19.6004ZM1.72363 11.9999C1.72363 13.2604 1.72294 14.2545 1.79551 15.0667C1.86936 15.8931 2.0224 16.5844 2.35755 17.2377L3.69218 16.5531C3.4761 16.1318 3.35352 15.649 3.28956 14.9332C3.22432 14.2031 3.22363 13.2867 3.22363 11.9999H1.72363ZM3.90293 16.9181C3.82668 16.8 3.75635 16.6781 3.69218 16.5531L2.35755 17.2377C2.44436 17.407 2.53952 17.5718 2.64268 17.7316L3.90293 16.9181ZM16.3881 19.6004C15.2737 20.2438 14.4797 20.7014 13.8148 21.01C13.1629 21.3125 12.6835 21.4477 12.2107 21.4712L12.285 22.9694C13.0184 22.9329 13.6936 22.7199 14.4462 22.3706C15.1859 22.0274 16.0464 21.5297 17.1381 20.8995L16.3881 19.6004ZM6.86177 20.8995C7.95339 21.5297 8.81397 22.0274 9.5536 22.3706C10.3063 22.7199 10.9814 22.9329 11.7148 22.9694L11.7892 21.4712C11.3163 21.4477 10.8369 21.3125 10.185 21.01C9.52009 20.7014 8.72616 20.2438 7.61177 19.6004L6.86177 20.8995ZM12.2107 21.4712C12.0702 21.4782 11.9296 21.4782 11.7892 21.4712L11.7148 22.9694C11.9048 22.9788 12.0951 22.9788 12.285 22.9694L12.2107 21.4712ZM20.7762 11.9999C20.7762 13.2867 20.7755 14.2031 20.7103 14.9332C20.6463 15.649 20.5237 16.1318 20.3076 16.5531L21.6423 17.2377C21.9774 16.5844 22.1305 15.8931 22.2043 15.0667C22.2769 14.2545 22.2762 13.2604 22.2762 11.9999H20.7762ZM17.1381 20.8995C18.2297 20.2692 19.0909 19.7727 19.758 19.3038C20.4368 18.8266 20.9589 18.3485 21.3571 17.7316L20.0969 16.9181C19.8402 17.3158 19.4833 17.6634 18.8954 18.0767C18.2957 18.4983 17.5024 18.957 16.3881 19.6004L17.1381 20.8995ZM20.3076 16.5531C20.2435 16.6781 20.1731 16.8 20.0969 16.9181L21.3571 17.7316C21.4603 17.5718 21.5555 17.407 21.6423 17.2377L20.3076 16.5531ZM16.3881 4.39945C17.5024 5.04285 18.2957 5.50162 18.8954 5.92318C19.4833 6.33648 19.8402 6.68405 20.0969 7.08179L21.3571 6.26829C20.9589 5.65139 20.4368 5.17323 19.758 4.69604C19.0909 4.22712 18.2297 3.73066 17.1381 3.10042L16.3881 4.39945ZM22.2762 11.9999C22.2762 10.7394 22.2769 9.74533 22.2043 8.93318C22.1305 8.10672 21.9774 7.41546 21.6423 6.76215L20.3076 7.44681C20.5237 7.86803 20.6463 8.35086 20.7103 9.06668C20.7755 9.7968 20.7762 10.7131 20.7762 11.9999H22.2762ZM20.0969 7.08179C20.1731 7.1999 20.2435 7.32173 20.3076 7.44681L21.6423 6.76215C21.5555 6.59292 21.4603 6.42809 21.3571 6.26829L20.0969 7.08179ZM17.1381 3.10042C16.0464 2.47017 15.1859 1.97252 14.4462 1.62929C13.6936 1.28001 13.0184 1.06692 12.285 1.03051L12.2107 2.52867C12.6835 2.55214 13.1629 2.6874 13.8148 2.98992C14.4797 3.29848 15.2737 3.75606 16.3881 4.39945L17.1381 3.10042ZM7.61177 4.39945C8.72616 3.75606 9.52009 3.29848 10.185 2.98992C10.8369 2.6874 11.3163 2.55214 11.7892 2.52867L11.7148 1.03051C10.9814 1.06692 10.3063 1.28001 9.5536 1.62929C8.81397 1.97252 7.95339 2.47017 6.86177 3.10042L7.61177 4.39945ZM12.285 1.03051C12.0951 1.02108 11.9048 1.02108 11.7148 1.03051L11.7892 2.52867C11.9296 2.52169 12.0702 2.52169 12.2107 2.52867L12.285 1.03051ZM10.9999 12.7499H16.8819V11.2499H10.9999V12.7499ZM17.6707 14.3353L17.7235 14.2298L16.3819 13.559L16.3291 13.6645L17.6707 14.3353ZM17.7235 14.2298C18.1106 13.4556 18.1106 12.5443 17.7235 11.7701L16.3819 12.4409C16.5578 12.7928 16.5578 13.207 16.3819 13.559L17.7235 14.2298ZM14.6707 14.3353L14.7235 14.2298L13.3819 13.559L13.3291 13.6645L14.6707 14.3353ZM14.7235 11.7701L14.6707 11.6645L13.3291 12.3353L13.3819 12.4409L14.7235 11.7701ZM14.7235 14.2298C15.1106 13.4556 15.1106 12.5443 14.7235 11.7701L13.3819 12.4409C13.5578 12.7928 13.5578 13.207 13.3819 13.559L14.7235 14.2298ZM7.99991 10.7499H9.52288V9.24994H7.99991V10.7499ZM9.52288 13.2499H7.99991V14.7499H9.52288V13.2499ZM7.74991 12.9999V10.9999H6.24991V12.9999H7.74991ZM9.755 10.9071L10.155 11.9071L11.5477 11.35L11.1477 10.35L9.755 10.9071ZM10.155 12.0928L9.755 13.0928L11.1477 13.6499L11.5477 12.6499L10.155 12.0928ZM7.99991 13.2499C7.86184 13.2499 7.74991 13.138 7.74991 12.9999H6.24991C6.24991 13.9664 7.03342 14.7499 7.99991 14.7499V13.2499ZM9.52288 14.7499C10.2385 14.7499 10.882 14.3143 11.1477 13.6499L9.755 13.0928C9.71703 13.1877 9.6251 13.2499 9.52288 13.2499V14.7499ZM9.52288 10.7499C9.62511 10.7499 9.71703 10.8122 9.755 10.9071L11.1477 10.35C10.882 9.6856 10.2385 9.24994 9.52288 9.24994V10.7499ZM7.99991 9.24994C7.03341 9.24994 6.24991 10.0334 6.24991 10.9999H7.74991C7.74991 10.8619 7.86184 10.7499 7.99991 10.7499V9.24994ZM10.155 11.9071C10.1669 11.9369 10.1729 11.9684 10.1729 11.9999H11.6729C11.6729 11.7793 11.6312 11.5586 11.5477 11.35L10.155 11.9071ZM10.1729 11.9999C10.1729 12.0315 10.1669 12.063 10.155 12.0928L11.5477 12.6499C11.6312 12.4413 11.6729 12.2206 11.6729 11.9999H10.1729ZM10.9999 11.2499H10.9229V12.7499H10.9999V11.2499ZM16.8819 12.7499C16.6701 12.7499 16.4766 12.6303 16.3819 12.4409L17.7235 11.7701C17.5641 11.4513 17.2383 11.2499 16.8819 11.2499V12.7499Z" fill="#FAFAFA"/>
</svg>
