<svg width="24" height="24" viewBox="0 0 24 24" fill="none" xmlns="http://www.w3.org/2000/svg">
<g clip-path="url(#clip0_195_3195)">
<path d="M12.3477 9.9259C13.0165 10.5947 13.0165 11.679 12.3477 12.3478C11.6789 13.0166 10.5946 13.0166 9.92581 12.3478C9.25703 11.679 9.25703 10.5947 9.92581 9.9259C10.5946 9.25712 11.6789 9.25712 12.3477 9.9259Z" fill="#FAFAFA"/>
<path d="M6.46373 16.4327L6.09319 17.0848H6.09319L6.46373 16.4327ZM4.14969 14.9225L3.62326 15.4567L4.14969 14.9225ZM2.78605 9.51664L3.53385 9.57403L2.78605 9.51664ZM2.74429 12.2796L3.48153 12.1418L2.74429 12.2796ZM14.6128 18.0301L14.2132 17.3954L14.6128 18.0301ZM8.34157 17.4998L8.71211 16.8477L8.34157 17.4998ZM10.5038 18.5854L10.2871 19.3034L10.5038 18.5854ZM17.4996 8.3417L18.1517 7.97116L17.4996 8.3417ZM18.5853 10.504L19.3033 10.2872L18.5853 10.504ZM18.03 14.6129L17.3953 14.2134L18.03 14.6129ZM9.51652 2.78617L9.5739 3.53397L9.51652 2.78617ZM12.2794 2.74441L12.1417 3.48165L12.2794 2.74441ZM16.4326 6.46386L15.7805 6.8344L16.4326 6.46386ZM14.9224 4.14981L15.4566 3.62338L14.9224 4.14981ZM5.95643 3.32613L6.25142 4.01568V4.01568L5.95643 3.32613ZM3.32601 5.95655L4.01556 6.25154H4.01556L3.32601 5.95655ZM12.918 19.0432L13.4483 18.5129L13.4483 18.5129L12.918 19.0432ZM5.00702 3.94641C4.71413 3.65351 4.23926 3.65351 3.94636 3.94641C3.65347 4.2393 3.65347 4.71417 3.94636 5.00707L5.00702 3.94641ZM9.39559 10.4563C9.68848 10.7492 10.1634 10.7492 10.4563 10.4563C10.7491 10.1634 10.7491 9.68853 10.4563 9.39563L9.39559 10.4563ZM18.7524 12.6275L18.0094 12.5258L18.7524 12.6275ZM12.6273 18.7526L12.5256 18.0095L12.6273 18.7526ZM15.7805 6.8344L16.8476 8.71224L18.1517 7.97116L17.0846 6.09332L15.7805 6.8344ZM8.71211 16.8477L6.83427 15.7806L6.09319 17.0848L7.97103 18.1518L8.71211 16.8477ZM6.83427 15.7806C5.56661 15.0603 5.05712 14.7637 4.67612 14.3883L3.62326 15.4567C4.17826 16.0036 4.89946 16.4064 6.09319 17.0848L6.83427 15.7806ZM2.03825 9.45926C1.9332 10.8282 1.86392 11.6514 2.00705 12.4173L3.48153 12.1418C3.38327 11.616 3.4223 11.0278 3.53385 9.57403L2.03825 9.45926ZM4.67612 14.3883C4.05786 13.779 3.64097 12.995 3.48153 12.1418L2.00705 12.4173C2.22277 13.5717 2.78679 14.6324 3.62326 15.4567L4.67612 14.3883ZM15.879 15.8792C14.9712 16.787 14.5995 17.1522 14.2132 17.3954L15.0124 18.6648C15.5759 18.3101 16.0853 17.7942 16.9397 16.9398L15.879 15.8792ZM7.97103 18.1518C9.02153 18.7488 9.64963 19.1109 10.2871 19.3034L10.7206 17.8674C10.2836 17.7355 9.82835 17.482 8.71211 16.8477L7.97103 18.1518ZM16.8476 8.71224C17.4819 9.82847 17.7353 10.2837 17.8673 10.7207L19.3033 10.2872C19.1108 9.64975 18.7487 9.02165 18.1517 7.97116L16.8476 8.71224ZM16.9397 16.9398C17.7941 16.0854 18.3099 15.576 18.6647 15.0125L17.3953 14.2134C17.1521 14.5997 16.7869 14.9713 15.879 15.8792L16.9397 16.9398ZM9.5739 3.53397C11.0277 3.42242 11.6159 3.38339 12.1417 3.48165L12.4172 2.00717C11.6513 1.86405 10.8281 1.93332 9.45914 2.03837L9.5739 3.53397ZM17.0846 6.09332C16.4063 4.89959 16.0035 4.17838 15.4566 3.62338L14.3882 4.67624C14.7636 5.05724 15.0601 5.56673 15.7805 6.8344L17.0846 6.09332ZM12.1417 3.48165C12.9949 3.6411 13.7789 4.05798 14.3882 4.67624L15.4566 3.62338C14.6323 2.78691 13.5716 2.22289 12.4172 2.00717L12.1417 3.48165ZM9.45914 2.03837C7.65032 2.17717 6.56351 2.25067 5.66144 2.63658L6.25142 4.01568C6.8692 3.7514 7.64917 3.68166 9.5739 3.53397L9.45914 2.03837ZM3.53385 9.57403C3.68154 7.64929 3.75128 6.86932 4.01556 6.25154L2.63646 5.66156C2.25055 6.56364 2.17704 7.65044 2.03825 9.45926L3.53385 9.57403ZM5.66144 2.63658C4.30159 3.21832 3.2182 4.30171 2.63646 5.66156L4.01556 6.25154C4.44555 5.24643 5.24631 4.44567 6.25142 4.01568L5.66144 2.63658ZM14.6241 19.6886L13.4483 18.5129L12.3877 19.5735L13.5634 20.7493L14.6241 19.6886ZM18.5127 13.4485L19.6885 14.6243L20.7491 13.5636L19.5734 12.3878L18.5127 13.4485ZM19.6885 19.6886C18.29 21.0871 16.0226 21.0871 14.6241 19.6886L13.5634 20.7493C15.5477 22.7336 18.7649 22.7336 20.7491 20.7493L19.6885 19.6886ZM20.7491 20.7493C22.7334 18.765 22.7334 15.5479 20.7491 13.5636L19.6885 14.6243C21.087 16.0227 21.087 18.2901 19.6885 19.6886L20.7491 20.7493ZM3.94636 5.00707L9.39559 10.4563L10.4563 9.39563L5.00702 3.94641L3.94636 5.00707ZM17.8673 10.7207C18.0458 11.312 18.0913 11.9276 18.0094 12.5258L19.4955 12.7293C19.6063 11.9201 19.5448 11.0872 19.3033 10.2872L17.8673 10.7207ZM18.0094 12.5258C17.9281 13.119 17.7216 13.695 17.3953 14.2134L18.6647 15.0125C19.1062 14.3112 19.3856 13.5318 19.4955 12.7293L18.0094 12.5258ZM19.5734 12.3878L19.2828 12.0972L18.2221 13.1579L18.5127 13.4485L19.5734 12.3878ZM14.2132 17.3954C13.6949 17.7217 13.1188 17.9283 12.5256 18.0095L12.7291 19.4956C13.5316 19.3857 14.3111 19.1063 15.0124 18.6648L14.2132 17.3954ZM12.5256 18.0095C11.9274 18.0914 11.3119 18.0459 10.7206 17.8674L10.2871 19.3034C11.087 19.5449 11.9199 19.6064 12.7291 19.4956L12.5256 18.0095ZM13.4483 18.5129L13.1577 18.2222L12.097 19.2829L12.3877 19.5735L13.4483 18.5129Z" fill="#FAFAFA"/>
</g>
<defs>
<clipPath id="clip0_195_3195">
<rect width="24" height="24" fill="white"/>
</clipPath>
</defs>
</svg>
