<svg width="24" height="24" viewBox="0 0 24 24" fill="none" xmlns="http://www.w3.org/2000/svg">
<path d="M11.2499 21.9999C11.2499 22.4141 11.5857 22.7499 11.9999 22.7499C12.4141 22.7499 12.7499 22.4141 12.7499 21.9999H11.2499ZM12.7499 10.9999C12.7499 10.5857 12.4141 10.2499 11.9999 10.2499C11.5857 10.2499 11.2499 10.5857 11.2499 10.9999H12.7499ZM9.13527 10.9998L9.13527 11.7498L9.13527 10.9998ZM7.55046 7.77986L6.95616 7.32236H6.95616L7.55046 7.77986ZM16.4494 7.77986L17.0437 7.32236L16.4494 7.77986ZM14.8646 10.9998V10.2498V10.9998ZM13.5847 4.05858L12.9904 4.51607L13.5847 4.05858ZM10.4151 4.05858L11.0094 4.51607L10.4151 4.05858ZM12.7499 21.9999L12.7499 10.9999H11.2499L11.2499 21.9999H12.7499ZM12.9904 4.51607L15.8551 8.23735L17.0437 7.32236L14.179 3.60108L12.9904 4.51607ZM14.8646 10.2498L9.13527 10.2498L9.13527 11.7498L14.8646 11.7498V10.2498ZM8.14477 8.23735L11.0094 4.51607L9.8208 3.60108L6.95616 7.32236L8.14477 8.23735ZM9.13527 10.2498C8.09798 10.2498 7.51202 9.05931 8.14477 8.23735L6.95616 7.32236C5.56412 9.13067 6.85322 11.7498 9.13527 11.7498L9.13527 10.2498ZM15.8551 8.23735C16.4878 9.05931 15.9019 10.2498 14.8646 10.2498V11.7498C17.1466 11.7498 18.4357 9.13068 17.0437 7.32236L15.8551 8.23735ZM14.179 3.60108C13.0782 2.17106 10.9216 2.17106 9.8208 3.60108L11.0094 4.51607C11.5098 3.86606 12.49 3.86606 12.9904 4.51607L14.179 3.60108Z" fill="#FAFAFA"/>
</svg>
