<svg width="24" height="24" viewBox="0 0 24 24" fill="none" xmlns="http://www.w3.org/2000/svg">
<path d="M3.73005 19.455L4.07054 18.7868L3.73005 19.455ZM1.54497 17.27L2.21322 16.9295L1.54497 17.27ZM16.455 17.27L15.7868 16.9295L16.455 17.27ZM14.27 19.455L13.9295 18.7868L14.27 19.455ZM14.27 4.54497L13.9295 5.21322L14.27 4.54497ZM16.455 6.73005L15.7868 7.07054L16.455 6.73005ZM3.73005 4.54497L4.07054 5.21322L3.73005 4.54497ZM1.54497 6.73005L2.21322 7.07054L1.54497 6.73005ZM9 9.75C9.41421 9.75 9.75 9.41421 9.75 9C9.75 8.58579 9.41421 8.25 9 8.25V9.75ZM5 8.25C4.58579 8.25 4.25 8.58579 4.25 9C4.25 9.41421 4.58579 9.75 5 9.75V8.25ZM23 11.113H23.75H23ZM23 12.887H22.25H23ZM17 7.62176L16.6997 6.93451L16.6911 6.93826L16.6826 6.94223L17 7.62176ZM17.3984 7.44768L17.6987 8.13494V8.13494L17.3984 7.44768ZM17.3984 16.5523L17.6987 15.8651L17.6987 15.8651L17.3984 16.5523ZM17 16.3782L16.681 17.057L16.6903 17.0614L16.6997 17.0655L17 16.3782ZM22.0951 17.617L22.5057 18.2446L22.0951 17.617ZM22.0951 6.38296L22.5057 5.75537V5.75537L22.0951 6.38296ZM16.7941 7.71794L16.0606 7.87444L16.7941 7.71794ZM9 19.25C7.58749 19.25 6.57322 19.2494 5.77708 19.1844C4.9897 19.12 4.48197 18.9964 4.07054 18.7868L3.38955 20.1233C4.04768 20.4586 4.77479 20.6075 5.65494 20.6794C6.52632 20.7506 7.61224 20.75 9 20.75V19.25ZM0.25 12C0.25 13.3878 0.249417 14.4737 0.320612 15.3451C0.392522 16.2252 0.541378 16.9523 0.876713 17.6104L2.21322 16.9295C2.00359 16.518 1.87996 16.0103 1.81563 15.2229C1.75058 14.4268 1.75 13.4125 1.75 12H0.25ZM4.07054 18.7868C3.27085 18.3793 2.62068 17.7291 2.21322 16.9295L0.876713 17.6104C1.42798 18.6924 2.30762 19.572 3.38955 20.1233L4.07054 18.7868ZM9 20.75C10.3878 20.75 11.4737 20.7506 12.3451 20.6794C13.2252 20.6075 13.9523 20.4586 14.6104 20.1233L13.9295 18.7868C13.518 18.9964 13.0103 19.12 12.2229 19.1844C11.4268 19.2494 10.4125 19.25 9 19.25V20.75ZM15.7868 16.9295C15.3793 17.7291 14.7291 18.3793 13.9295 18.7868L14.6104 20.1233C15.6924 19.572 16.572 18.6924 17.1233 17.6104L15.7868 16.9295ZM9 4.75C10.4125 4.75 11.4268 4.75058 12.2229 4.81563C13.0103 4.87996 13.518 5.00359 13.9295 5.21322L14.6104 3.87671C13.9523 3.54138 13.2252 3.39252 12.3451 3.32061C11.4737 3.24942 10.3878 3.25 9 3.25V4.75ZM13.9295 5.21322C14.7291 5.62068 15.3793 6.27085 15.7868 7.07054L17.1233 6.38955C16.572 5.30762 15.6924 4.42798 14.6104 3.87671L13.9295 5.21322ZM9 3.25C7.61224 3.25 6.52632 3.24942 5.65494 3.32061C4.77479 3.39252 4.04768 3.54138 3.38955 3.87671L4.07054 5.21322C4.48197 5.00359 4.9897 4.87996 5.77708 4.81563C6.57322 4.75058 7.58749 4.75 9 4.75V3.25ZM1.75 12C1.75 10.5875 1.75058 9.57322 1.81563 8.77708C1.87996 7.9897 2.00359 7.48197 2.21322 7.07054L0.876713 6.38955C0.541378 7.04768 0.392522 7.77479 0.320612 8.65494C0.249417 9.52632 0.25 10.6122 0.25 12H1.75ZM3.38955 3.87671C2.30762 4.42798 1.42798 5.30762 0.876713 6.38955L2.21322 7.07054C2.62068 6.27085 3.27085 5.62068 4.07054 5.21322L3.38955 3.87671ZM9 8.25H5V9.75H9V8.25ZM22.25 11.113V12.887H23.75V11.113H22.25ZM17.3003 8.30901L17.6987 8.13494L17.0981 6.76043L16.6997 6.93451L17.3003 8.30901ZM17.6987 15.8651L17.3003 15.691L16.6997 17.0655L17.0981 17.2396L17.6987 15.8651ZM22.25 12.887C22.25 14.2911 22.248 15.2589 22.145 15.9546C22.044 16.6364 21.871 16.8674 21.6844 16.9895L22.5057 18.2446C23.2241 17.7746 23.5036 17.0198 23.6288 16.1743C23.752 15.3427 23.75 14.2414 23.75 12.887H22.25ZM17.0981 17.2396C18.3393 17.7819 19.3475 18.2247 20.159 18.4448C20.9839 18.6686 21.7874 18.7147 22.5057 18.2446L21.6844 16.9895C21.4978 17.1116 21.217 17.1776 20.5517 16.9971C19.873 16.813 18.9854 16.4273 17.6987 15.8651L17.0981 17.2396ZM23.75 11.113C23.75 9.75855 23.752 8.65734 23.6288 7.82567C23.5036 6.98019 23.2241 6.2254 22.5057 5.75537L21.6844 7.01054C21.871 7.13264 22.044 7.36358 22.145 8.04545C22.248 8.74113 22.25 9.70889 22.25 11.113H23.75ZM17.6987 8.13494C18.9854 7.57271 19.873 7.18703 20.5517 7.0029C21.217 6.82242 21.4978 6.88845 21.6844 7.01054L22.5057 5.75537C21.7874 5.28534 20.9839 5.33144 20.159 5.55522C19.3475 5.77534 18.3393 6.21809 17.0981 6.76043L17.6987 8.13494ZM17.75 12C17.75 10.0137 17.7541 8.62323 17.5276 7.56143L16.0606 7.87444C16.2459 8.74266 16.25 9.93753 16.25 12H17.75ZM17.5276 7.56143C17.4374 7.13896 17.3088 6.75356 17.1233 6.38955L15.7868 7.07054C15.9033 7.29921 15.9929 7.55724 16.0606 7.87444L17.5276 7.56143ZM16.6826 6.94223L16.4767 7.03841L17.1115 8.39746L17.3174 8.30129L16.6826 6.94223ZM16.25 12C16.25 14.0621 16.2459 15.2569 16.0607 16.1251L17.5277 16.4379C17.7541 15.3763 17.75 13.986 17.75 12H16.25ZM16.0607 16.1251C15.993 16.4425 15.9033 16.7007 15.7868 16.9295L17.1233 17.6104C17.3089 17.2463 17.4376 16.8607 17.5277 16.4379L16.0607 16.1251ZM17.319 15.6995L17.1132 15.6028L16.4752 16.9603L16.681 17.057L17.319 15.6995Z" fill="#FAFAFA"/>
</svg>
