<svg width="24" height="24" viewBox="0 0 24 24" fill="none" xmlns="http://www.w3.org/2000/svg">
<path d="M11.25 22C11.25 22.4142 11.5858 22.75 12 22.75C12.4142 22.75 12.75 22.4142 12.75 22H11.25ZM10 21.25C9.58579 21.25 9.25 21.5858 9.25 22C9.25 22.4142 9.58579 22.75 10 22.75V21.25ZM14 22.75C14.4142 22.75 14.75 22.4142 14.75 22C14.75 21.5858 14.4142 21.25 14 21.25V22.75ZM2 11.25C1.58579 11.25 1.25 11.5858 1.25 12C1.25 12.4142 1.58579 12.75 2 12.75V11.25ZM2.75 10C2.75 9.58579 2.41421 9.25 2 9.25C1.58579 9.25 1.25 9.58579 1.25 10H2.75ZM1.25 14C1.25 14.4142 1.58579 14.75 2 14.75C2.41421 14.75 2.75 14.4142 2.75 14H1.25ZM22 12.75C22.4142 12.75 22.75 12.4142 22.75 12C22.75 11.5858 22.4142 11.25 22 11.25V12.75ZM21.25 14C21.25 14.4142 21.5858 14.75 22 14.75C22.4142 14.75 22.75 14.4142 22.75 14H21.25ZM22.75 10C22.75 9.58579 22.4142 9.25 22 9.25C21.5858 9.25 21.25 9.58579 21.25 10H22.75ZM12.75 2C12.75 1.58579 12.4142 1.25 12 1.25C11.5858 1.25 11.25 1.58579 11.25 2H12.75ZM10 1.25C9.58579 1.25 9.25 1.58579 9.25 2C9.25 2.41421 9.58579 2.75 10 2.75V1.25ZM14 2.75C14.4142 2.75 14.75 2.41421 14.75 2C14.75 1.58579 14.4142 1.25 14 1.25V2.75ZM15.9998 16L16.5301 15.4697L16.51 15.4496L16.4885 15.4311L15.9998 16ZM19.1262 20.1872C19.4191 20.4801 19.8939 20.4801 20.1868 20.1872C20.4797 19.8943 20.4797 19.4194 20.1868 19.1266L19.1262 20.1872ZM17.7123 20.5407C17.4194 20.8336 17.4194 21.3085 17.7123 21.6014C18.0052 21.8943 18.4801 21.8943 18.773 21.6014L17.7123 20.5407ZM21.6014 18.773C21.8943 18.4801 21.8943 18.0052 21.6014 17.7123C21.3085 17.4194 20.8336 17.4194 20.5407 17.7123L21.6014 18.773ZM8.00005 7.99984L7.46972 8.53017L7.48981 8.55025L7.51135 8.56876L8.00005 7.99984ZM4.94477 3.88389C4.65187 3.59099 4.177 3.59099 3.88411 3.88389C3.59121 4.17678 3.59121 4.65165 3.88411 4.94455L4.94477 3.88389ZM6.35898 3.53034C6.65187 3.23744 6.65187 2.76257 6.35898 2.46967C6.06609 2.17678 5.59121 2.17678 5.29832 2.46967L6.35898 3.53034ZM2.46989 5.2981C2.177 5.59099 2.177 6.06587 2.46989 6.35876C2.76278 6.65166 3.23766 6.65166 3.53055 6.35876L2.46989 5.2981ZM16.0002 7.99998L16.4887 8.56913L16.5076 8.55292L16.5253 8.53548L16.0002 7.99998ZM20.1821 4.9497C20.4778 4.65969 20.4825 4.18484 20.1925 3.88909C19.9025 3.59334 19.4276 3.58869 19.1319 3.8787L20.1821 4.9497ZM18.773 2.46967C18.4801 2.17678 18.0052 2.17678 17.7123 2.46968C17.4194 2.76257 17.4194 3.23744 17.7123 3.53034L18.773 2.46967ZM20.5407 6.35876C20.8336 6.65166 21.3085 6.65166 21.6014 6.35876C21.8943 6.06587 21.8943 5.59099 21.6014 5.2981L20.5407 6.35876ZM8.00023 16L7.51153 15.4311L7.48717 15.452L7.4647 15.4749L8.00023 16ZM3.87925 19.1318C3.58926 19.4276 3.59394 19.9024 3.8897 20.1924C4.18547 20.4824 4.66032 20.4777 4.95031 20.182L3.87925 19.1318ZM5.29832 21.6014C5.59121 21.8943 6.06609 21.8943 6.35898 21.6014C6.65187 21.3085 6.65187 20.8336 6.35898 20.5407L5.29832 21.6014ZM3.53055 17.7123C3.23766 17.4194 2.76278 17.4194 2.46989 17.7123C2.177 18.0052 2.177 18.4801 2.46989 18.773L3.53055 17.7123ZM8.5 8.42928L9.02503 8.96486L8.5 8.42928ZM15.5 8.42928L14.975 8.96486L15.5 8.42928ZM15.5 15.5707L14.975 15.0351L15.5 15.5707ZM8.5 15.5707L9.02503 15.0351L8.5 15.5707ZM11.25 17V22H12.75V17H11.25ZM10 22.75H14V21.25H10V22.75ZM7 11.25H2V12.75H7V11.25ZM1.25 10L1.25 14H2.75L2.75 10H1.25ZM17 12.75H22V11.25H17V12.75ZM22.75 14V10H21.25V14H22.75ZM12.75 7V2H11.25V7H12.75ZM10 2.75L14 2.75V1.25L10 1.25V2.75ZM15.4694 16.5303L19.1262 20.1872L20.1868 19.1266L16.5301 15.4697L15.4694 16.5303ZM18.773 21.6014L21.6014 18.773L20.5407 17.7123L17.7123 20.5407L18.773 21.6014ZM8.53038 7.46951L4.94477 3.88389L3.88411 4.94455L7.46972 8.53017L8.53038 7.46951ZM5.29832 2.46967L2.46989 5.2981L3.53055 6.35876L6.35898 3.53034L5.29832 2.46967ZM16.5253 8.53548L20.1821 4.9497L19.1319 3.8787L15.4751 7.46448L16.5253 8.53548ZM17.7123 3.53034L20.5407 6.35876L21.6014 5.2981L18.773 2.46967L17.7123 3.53034ZM7.4647 15.4749L3.87925 19.1318L4.95031 20.182L8.53576 16.5251L7.4647 15.4749ZM6.35898 20.5407L3.53055 17.7123L2.46989 18.773L5.29832 21.6014L6.35898 20.5407ZM7.75 12C7.75 10.811 8.23731 9.73707 9.02503 8.96486L7.97497 7.89371C6.91132 8.93642 6.25 10.3917 6.25 12H7.75ZM9.02503 8.96486C9.7924 8.2126 10.8414 7.75 12 7.75V6.25C10.4331 6.25 9.01136 6.87772 7.97497 7.89371L9.02503 8.96486ZM7.51135 8.56876L8.0113 8.99821L8.9887 7.86036L8.48875 7.43091L7.51135 8.56876ZM12 7.75C13.1586 7.75 14.2076 8.2126 14.975 8.96486L16.025 7.89371C14.9886 6.87772 13.5669 6.25 12 6.25V7.75ZM14.975 8.96486C15.7627 9.73707 16.25 10.811 16.25 12H17.75C17.75 10.3917 17.0887 8.93642 16.025 7.89371L14.975 8.96486ZM15.5118 7.43084L15.0116 7.86014L15.9884 8.99843L16.4887 8.56913L15.5118 7.43084ZM16.25 12C16.25 13.189 15.7627 14.2629 14.975 15.0351L16.025 16.1063C17.0887 15.0636 17.75 13.6083 17.75 12H16.25ZM14.975 15.0351C14.2076 15.7874 13.1586 16.25 12 16.25V17.75C13.5669 17.75 14.9886 17.1223 16.025 16.1063L14.975 15.0351ZM16.4885 15.4311L15.9887 15.0018L15.0113 16.1396L15.5111 16.5689L16.4885 15.4311ZM12 16.25C10.8414 16.25 9.79239 15.7874 9.02503 15.0351L7.97497 16.1063C9.01136 17.1223 10.4331 17.75 12 17.75V16.25ZM9.02503 15.0351C8.23731 14.2629 7.75 13.189 7.75 12H6.25C6.25 13.6083 6.91132 15.0636 7.97497 16.1063L9.02503 15.0351ZM8.48893 16.5689L8.9887 16.1396L8.0113 15.0018L7.51153 15.4311L8.48893 16.5689Z" fill="#FAFAFA"/>
</svg>
