<svg width="24" height="24" viewBox="0 0 24 24" fill="none" xmlns="http://www.w3.org/2000/svg">
<path d="M6.91496 15.8919L7.39196 15.3132H7.39196L6.91496 15.8919ZM6.52604 15.5791L6.0779 16.1805L6.52604 15.5791ZM3.78282 14.5944L3.74616 15.3435L3.78282 14.5944ZM3.78282 8.86812L3.74616 8.11902L3.78282 8.86812ZM6.91496 7.57056L7.39196 8.14932H7.39196L6.91496 7.57056ZM6.52604 7.88335L6.97418 8.48474L6.52604 7.88335ZM1.0124 12.8108L0.267056 12.8942L1.0124 12.8108ZM2.7776 14.576L2.6942 15.3213L2.7776 14.576ZM13.1258 19.1442L12.7036 18.5243L13.1258 19.1442ZM7.91095 16.7128L7.43395 17.2916L7.91095 16.7128ZM12.5596 19.4113L12.3498 18.6912L12.5596 19.4113ZM13.1258 4.31825L13.5479 3.69836L13.1258 4.31825ZM7.91095 6.74968L7.43395 6.17092H7.43395L7.91095 6.74968ZM12.5596 4.05122L12.3498 4.77126L12.5596 4.05122ZM1.0124 10.6517L0.267056 10.5683L1.0124 10.6517ZM2.7776 8.8865L2.6942 8.14115L2.7776 8.8865ZM17.4 15.3312L16.8697 14.8009L16.8697 14.8009L17.4 15.3312ZM16.4697 15.2009C16.1768 15.4938 16.1768 15.9687 16.4697 16.2616C16.7626 16.5545 17.2374 16.5545 17.5303 16.2616L16.4697 15.2009ZM17.5303 7.20091C17.2374 6.90802 16.7626 6.90802 16.4697 7.20091C16.1768 7.4938 16.1768 7.96868 16.4697 8.26157L17.5303 7.20091ZM17.4 8.13124L16.8697 8.66157L16.8697 8.66157L17.4 8.13124ZM17.5147 15.2158L18.0526 15.7385L17.5147 15.2158ZM17.5147 8.2467L18.0526 7.72402L18.0526 7.72402L17.5147 8.2467ZM19.7 18.0312L19.1697 17.5009L19.7 18.0312ZM18.4697 18.2009C18.1768 18.4938 18.1768 18.9687 18.4697 19.2616C18.7626 19.5545 19.2374 19.5545 19.5303 19.2616L18.4697 18.2009ZM19.5303 4.20091C19.2374 3.90802 18.7626 3.90802 18.4697 4.20091C18.1768 4.4938 18.1768 4.96868 18.4697 5.26157L19.5303 4.20091ZM19.7 5.43124L19.1697 5.96157L19.1697 5.96157L19.7 5.43124ZM20.8251 16.8611L20.2496 16.3802L20.8251 16.8611ZM20.8251 6.60138L20.2496 7.0823V7.0823L20.8251 6.60138ZM13.25 9.62183V13.8407H14.75V9.62183H13.25ZM1.75 12.3046V11.1579H0.25V12.3046H1.75ZM7.39196 8.14932L8.38796 7.32845L7.43395 6.17092L6.43796 6.99179L7.39196 8.14932ZM8.38796 16.134L7.39196 15.3132L6.43796 16.4707L7.43395 17.2916L8.38796 16.134ZM7.39196 15.3132C7.2036 15.1579 7.09034 15.0643 6.97418 14.9777L6.0779 16.1805C6.15784 16.2401 6.23849 16.3063 6.43796 16.4707L7.39196 15.3132ZM3.28376 15.3384C3.54224 15.3384 3.64659 15.3386 3.74616 15.3435L3.81948 13.8453C3.6748 13.8382 3.52786 13.8384 3.28376 13.8384V15.3384ZM6.97418 14.9777C6.05842 14.2953 4.96018 13.9011 3.81948 13.8453L3.74616 15.3435C4.58929 15.3847 5.40103 15.6761 6.0779 16.1805L6.97418 14.9777ZM3.28376 9.6241C3.52786 9.6241 3.6748 9.6243 3.81948 9.61722L3.74616 8.11902C3.64659 8.12389 3.54224 8.1241 3.28376 8.1241V9.6241ZM6.43796 6.99179C6.23849 7.15619 6.15783 7.2224 6.0779 7.28196L6.97418 8.48474C7.09034 8.39819 7.2036 8.30457 7.39196 8.14932L6.43796 6.99179ZM3.81948 9.61722C4.96018 9.5614 6.05842 9.16715 6.97418 8.48474L6.0779 7.28196C5.40103 7.78635 4.58929 8.07776 3.74616 8.11902L3.81948 9.61722ZM0.25 12.3046C0.25 12.5479 0.248827 12.7313 0.267056 12.8942L1.75775 12.7274C1.75117 12.6686 1.75 12.5884 1.75 12.3046H0.25ZM3.28376 13.8384C2.99995 13.8384 2.9198 13.8372 2.861 13.8306L2.6942 15.3213C2.8571 15.3396 3.04049 15.3384 3.28376 15.3384V13.8384ZM0.267056 12.8942C0.409905 14.1708 1.41756 15.1785 2.6942 15.3213L2.861 13.8306C2.28071 13.7657 1.82268 13.3077 1.75775 12.7274L0.267056 12.8942ZM13.25 13.8407C13.25 15.4318 13.2485 16.5512 13.1467 17.3516C13.043 18.1672 12.8589 18.4185 12.7036 18.5243L13.5479 19.7641C14.2668 19.2745 14.5199 18.4435 14.6347 17.5409C14.7515 16.623 14.75 15.3883 14.75 13.8407H13.25ZM7.43395 17.2916C8.62824 18.2759 9.58011 19.0623 10.3627 19.556C11.1322 20.0414 11.9345 20.3747 12.7695 20.1313L12.3498 18.6912C12.1694 18.7438 11.8584 18.726 11.163 18.2873C10.4806 17.8568 9.61583 17.146 8.38796 16.134L7.43395 17.2916ZM12.7036 18.5243C12.5952 18.5982 12.4758 18.6545 12.3498 18.6912L12.7695 20.1313C13.0467 20.0505 13.3093 19.9266 13.5479 19.7641L12.7036 18.5243ZM14.75 9.62183C14.75 8.07418 14.7515 6.83947 14.6347 5.92162C14.5199 5.01902 14.2668 4.18794 13.5479 3.69836L12.7036 4.93815C12.8589 5.04393 13.043 5.29524 13.1467 6.11089C13.2485 6.91127 13.25 8.03066 13.25 9.62183H14.75ZM8.38796 7.32845C9.61583 6.31646 10.4806 5.60567 11.163 5.17518C11.8584 4.73649 12.1694 4.71867 12.3498 4.77126L12.7695 3.33118C11.9345 3.0878 11.1322 3.42107 10.3627 3.90653C9.58011 4.40019 8.62824 5.18661 7.43395 6.17092L8.38796 7.32845ZM13.5479 3.69836C13.3093 3.53587 13.0467 3.41196 12.7695 3.33118L12.3498 4.77126C12.4758 4.80797 12.5952 4.8643 12.7036 4.93815L13.5479 3.69836ZM1.75 11.1579C1.75 10.874 1.75117 10.7939 1.75775 10.7351L0.267056 10.5683C0.248827 10.7312 0.25 10.9146 0.25 11.1579H1.75ZM3.28376 8.1241C3.04049 8.1241 2.8571 8.12292 2.6942 8.14115L2.861 9.63185C2.9198 9.62527 2.99995 9.6241 3.28376 9.6241V8.1241ZM1.75775 10.7351C1.82268 10.1548 2.28071 9.69678 2.861 9.63185L2.6942 8.14115C1.41756 8.284 0.409905 9.29166 0.267056 10.5683L1.75775 10.7351ZM16.8697 14.8009L16.4697 15.2009L17.5303 16.2616L17.9303 15.8616L16.8697 14.8009ZM16.4697 8.26157L16.8697 8.66157L17.9303 7.60091L17.5303 7.20091L16.4697 8.26157ZM17.9303 15.8616C17.9883 15.8036 18.023 15.769 18.0526 15.7385L16.9769 14.6931C16.9566 14.714 16.9314 14.7392 16.8697 14.8009L17.9303 15.8616ZM16.8697 8.66157C16.9314 8.72327 16.9566 8.74853 16.9769 8.76938L18.0526 7.72402C18.023 7.69352 17.9883 7.65892 17.9303 7.60091L16.8697 8.66157ZM18.0526 15.7385C20.221 13.507 20.221 9.95547 18.0526 7.72402L16.9769 8.76938C18.5796 10.4187 18.5796 13.0438 16.9769 14.6931L18.0526 15.7385ZM19.1697 17.5009L18.4697 18.2009L19.5303 19.2616L20.2303 18.5616L19.1697 17.5009ZM18.4697 5.26157L19.1697 5.96157L20.2303 4.90091L19.5303 4.20091L18.4697 5.26157ZM20.2303 18.5616C20.8161 17.9758 21.1445 17.6485 21.4006 17.342L20.2496 16.3802C20.0473 16.6222 19.7784 16.8922 19.1697 17.5009L20.2303 18.5616ZM19.1697 5.96157C19.7784 6.57028 20.0473 6.84024 20.2496 7.0823L21.4006 6.12045C21.1445 5.814 20.8161 5.48667 20.2303 4.90091L19.1697 5.96157ZM21.4006 17.342C24.1149 14.0939 24.1149 9.36857 21.4006 6.12045L20.2496 7.0823C22.4985 9.7736 22.4985 13.6889 20.2496 16.3802L21.4006 17.342Z" fill="#FAFAFA"/>
</svg>
