<svg width="24" height="24" viewBox="0 0 24 24" fill="none" xmlns="http://www.w3.org/2000/svg">
<path d="M8.91496 15.8919L9.39196 15.3132H9.39196L8.91496 15.8919ZM8.52604 15.5791L8.0779 16.1805L8.52604 15.5791ZM5.78282 14.5944L5.74616 15.3435L5.78282 14.5944ZM5.78282 8.86812L5.74616 8.11902L5.78282 8.86812ZM8.91496 7.57056L9.39196 8.14932H9.39196L8.91496 7.57056ZM8.52604 7.88335L8.97418 8.48474L8.52604 7.88335ZM3.0124 12.8108L2.26706 12.8942L3.0124 12.8108ZM4.7776 14.576L4.6942 15.3213L4.7776 14.576ZM15.1258 19.1442L14.7036 18.5243L15.1258 19.1442ZM9.91095 16.7128L9.43395 17.2916L9.91095 16.7128ZM14.5596 19.4113L14.3498 18.6912L14.5596 19.4113ZM15.1258 4.31825L15.5479 3.69836L15.1258 4.31825ZM9.91095 6.74968L9.43395 6.17092H9.43395L9.91095 6.74968ZM14.5596 4.05122L14.3498 4.77126L14.5596 4.05122ZM3.0124 10.6517L2.26706 10.5683L3.0124 10.6517ZM4.7776 8.8865L4.6942 8.14115L4.7776 8.8865ZM20.4 15.3312L19.8697 14.8009V14.8009L20.4 15.3312ZM19.4697 15.2009C19.1768 15.4938 19.1768 15.9687 19.4697 16.2616C19.7626 16.5545 20.2374 16.5545 20.5303 16.2616L19.4697 15.2009ZM20.5303 7.20091C20.2374 6.90802 19.7626 6.90802 19.4697 7.20091C19.1768 7.4938 19.1768 7.96868 19.4697 8.26157L20.5303 7.20091ZM20.4 8.13124L19.8697 8.66157L19.8697 8.66157L20.4 8.13124ZM20.5147 15.2158L21.0526 15.7385L20.5147 15.2158ZM20.5147 8.2467L21.0526 7.72402L21.0526 7.72402L20.5147 8.2467ZM15.25 9.62183V13.8407H16.75V9.62183H15.25ZM3.75 12.3046V11.1579H2.25V12.3046H3.75ZM9.39196 8.14932L10.388 7.32845L9.43395 6.17092L8.43796 6.99179L9.39196 8.14932ZM10.388 16.134L9.39196 15.3132L8.43796 16.4707L9.43395 17.2916L10.388 16.134ZM9.39196 15.3132C9.2036 15.1579 9.09034 15.0643 8.97418 14.9777L8.0779 16.1805C8.15784 16.2401 8.23849 16.3063 8.43796 16.4707L9.39196 15.3132ZM5.28376 15.3384C5.54224 15.3384 5.64659 15.3386 5.74616 15.3435L5.81948 13.8453C5.6748 13.8382 5.52786 13.8384 5.28376 13.8384V15.3384ZM8.97418 14.9777C8.05842 14.2953 6.96018 13.9011 5.81948 13.8453L5.74616 15.3435C6.58929 15.3847 7.40103 15.6761 8.0779 16.1805L8.97418 14.9777ZM5.28376 9.6241C5.52786 9.6241 5.6748 9.6243 5.81948 9.61722L5.74616 8.11902C5.64659 8.12389 5.54224 8.1241 5.28376 8.1241V9.6241ZM8.43796 6.99179C8.23849 7.15619 8.15783 7.2224 8.0779 7.28196L8.97418 8.48474C9.09034 8.39819 9.2036 8.30457 9.39196 8.14932L8.43796 6.99179ZM5.81948 9.61722C6.96018 9.5614 8.05842 9.16715 8.97418 8.48474L8.0779 7.28196C7.40103 7.78635 6.58929 8.07776 5.74616 8.11902L5.81948 9.61722ZM2.25 12.3046C2.25 12.5479 2.24883 12.7313 2.26706 12.8942L3.75775 12.7274C3.75117 12.6686 3.75 12.5884 3.75 12.3046H2.25ZM5.28376 13.8384C4.99995 13.8384 4.9198 13.8372 4.861 13.8306L4.6942 15.3213C4.8571 15.3396 5.04049 15.3384 5.28376 15.3384V13.8384ZM2.26706 12.8942C2.40991 14.1708 3.41756 15.1785 4.6942 15.3213L4.861 13.8306C4.28071 13.7657 3.82268 13.3077 3.75775 12.7274L2.26706 12.8942ZM15.25 13.8407C15.25 15.4318 15.2485 16.5512 15.1467 17.3516C15.043 18.1672 14.8589 18.4185 14.7036 18.5243L15.5479 19.7641C16.2668 19.2745 16.5199 18.4435 16.6347 17.5409C16.7515 16.623 16.75 15.3883 16.75 13.8407H15.25ZM9.43395 17.2916C10.6282 18.2759 11.5801 19.0623 12.3627 19.556C13.1322 20.0414 13.9345 20.3747 14.7695 20.1313L14.3498 18.6912C14.1694 18.7438 13.8584 18.726 13.163 18.2873C12.4806 17.8568 11.6158 17.146 10.388 16.134L9.43395 17.2916ZM14.7036 18.5243C14.5952 18.5982 14.4758 18.6545 14.3498 18.6912L14.7695 20.1313C15.0467 20.0505 15.3093 19.9266 15.5479 19.7641L14.7036 18.5243ZM16.75 9.62183C16.75 8.07418 16.7515 6.83947 16.6347 5.92162C16.5199 5.01902 16.2668 4.18794 15.5479 3.69836L14.7036 4.93815C14.8589 5.04393 15.043 5.29524 15.1467 6.11089C15.2485 6.91127 15.25 8.03066 15.25 9.62183H16.75ZM10.388 7.32845C11.6158 6.31646 12.4806 5.60567 13.163 5.17518C13.8584 4.73649 14.1694 4.71867 14.3498 4.77126L14.7695 3.33118C13.9345 3.0878 13.1322 3.42107 12.3627 3.90653C11.5801 4.40019 10.6282 5.18661 9.43395 6.17092L10.388 7.32845ZM15.5479 3.69836C15.3093 3.53587 15.0467 3.41196 14.7695 3.33118L14.3498 4.77126C14.4758 4.80797 14.5952 4.8643 14.7036 4.93815L15.5479 3.69836ZM3.75 11.1579C3.75 10.874 3.75117 10.7939 3.75775 10.7351L2.26706 10.5683C2.24883 10.7312 2.25 10.9146 2.25 11.1579H3.75ZM5.28376 8.1241C5.04049 8.1241 4.8571 8.12292 4.6942 8.14115L4.861 9.63185C4.9198 9.62527 4.99995 9.6241 5.28376 9.6241V8.1241ZM3.75775 10.7351C3.82268 10.1548 4.28071 9.69678 4.861 9.63185L4.6942 8.14115C3.41756 8.284 2.40991 9.29166 2.26706 10.5683L3.75775 10.7351ZM19.8697 14.8009L19.4697 15.2009L20.5303 16.2616L20.9303 15.8616L19.8697 14.8009ZM19.4697 8.26157L19.8697 8.66157L20.9303 7.60091L20.5303 7.20091L19.4697 8.26157ZM20.9303 15.8616C20.9883 15.8036 21.023 15.769 21.0526 15.7385L19.9769 14.6931C19.9566 14.714 19.9314 14.7392 19.8697 14.8009L20.9303 15.8616ZM19.8697 8.66157C19.9314 8.72327 19.9566 8.74853 19.9769 8.76938L21.0526 7.72402C21.023 7.69352 20.9883 7.65892 20.9303 7.60091L19.8697 8.66157ZM21.0526 15.7385C23.221 13.507 23.221 9.95547 21.0526 7.72402L19.9769 8.76938C21.5796 10.4187 21.5796 13.0438 19.9769 14.6931L21.0526 15.7385Z" fill="#FAFAFA"/>
</svg>
