<svg width="24" height="24" viewBox="0 0 24 24" fill="none" xmlns="http://www.w3.org/2000/svg">
<path d="M5.73005 19.455L6.07054 18.7868L5.73005 19.455ZM3.54497 17.27L4.21322 16.9295L3.54497 17.27ZM18.455 17.27L19.1233 17.6104L18.455 17.27ZM16.27 19.455L15.9295 18.7868L16.27 19.455ZM16.27 4.54497L16.6104 3.87671L16.27 4.54497ZM18.455 6.73005L17.7868 7.07054L18.455 6.73005ZM5.73005 4.54497L6.07054 5.21322L5.73005 4.54497ZM3.54497 6.73005L2.87671 6.38955L3.54497 6.73005ZM11.75 8C11.75 7.58579 11.4142 7.25 11 7.25C10.5858 7.25 10.25 7.58579 10.25 8H11.75ZM14 13.75C14.4142 13.75 14.75 13.4142 14.75 13C14.75 12.5858 14.4142 12.25 14 12.25V13.75ZM20.25 14C20.25 14.4142 20.5858 14.75 21 14.75C21.4142 14.75 21.75 14.4142 21.75 14H20.25ZM21.75 10C21.75 9.58579 21.4142 9.25 21 9.25C20.5858 9.25 20.25 9.58579 20.25 10H21.75ZM5.11808 19.0859L5.55037 18.473L5.11808 19.0859ZM16.8815 19.0862L16.4493 18.4733L16.8815 19.0862ZM11 19.25C9.58749 19.25 8.57322 19.2494 7.77708 19.1844C6.9897 19.12 6.48197 18.9964 6.07054 18.7868L5.38955 20.1233C6.04768 20.4586 6.77479 20.6075 7.65494 20.6794C8.52632 20.7506 9.61224 20.75 11 20.75V19.25ZM2.25 12C2.25 13.3878 2.24942 14.4737 2.32061 15.3451C2.39252 16.2252 2.54138 16.9523 2.87671 17.6104L4.21322 16.9295C4.00359 16.518 3.87996 16.0103 3.81563 15.2229C3.75058 14.4268 3.75 13.4125 3.75 12H2.25ZM18.25 12C18.25 13.4125 18.2494 14.4268 18.1844 15.2229C18.12 16.0103 17.9964 16.518 17.7868 16.9295L19.1233 17.6104C19.4586 16.9523 19.6075 16.2252 19.6794 15.3451C19.7506 14.4737 19.75 13.3878 19.75 12H18.25ZM11 20.75C12.3878 20.75 13.4737 20.7506 14.3451 20.6794C15.2252 20.6075 15.9523 20.4586 16.6104 20.1233L15.9295 18.7868C15.518 18.9964 15.0103 19.12 14.2229 19.1844C13.4268 19.2494 12.4125 19.25 11 19.25V20.75ZM11 4.75C12.4125 4.75 13.4268 4.75058 14.2229 4.81563C15.0103 4.87996 15.518 5.00359 15.9295 5.21322L16.6104 3.87671C15.9523 3.54138 15.2252 3.39252 14.3451 3.32061C13.4737 3.24942 12.3878 3.25 11 3.25V4.75ZM19.75 12C19.75 10.6122 19.7506 9.52632 19.6794 8.65494C19.6075 7.77479 19.4586 7.04768 19.1233 6.38955L17.7868 7.07054C17.9964 7.48197 18.12 7.9897 18.1844 8.77708C18.2494 9.57322 18.25 10.5875 18.25 12H19.75ZM11 3.25C9.61224 3.25 8.52632 3.24942 7.65494 3.32061C6.77479 3.39252 6.04768 3.54138 5.38955 3.87671L6.07054 5.21322C6.48197 5.00359 6.9897 4.87996 7.77708 4.81563C8.57322 4.75058 9.58749 4.75 11 4.75V3.25ZM3.75 12C3.75 10.5875 3.75058 9.57322 3.81563 8.77708C3.87996 7.9897 4.00359 7.48197 4.21322 7.07054L2.87671 6.38955C2.54138 7.04768 2.39252 7.77479 2.32061 8.65494C2.24942 9.52632 2.25 10.6122 2.25 12H3.75ZM10.0001 1.75H12.0001V0.25H10.0001V1.75ZM9.99984 23.75H11.9998V22.25H9.99984V23.75ZM10.25 8V11.5H11.75V8H10.25ZM21.75 14V10H20.25V14H21.75ZM12.5 13.75H14V12.25H12.5V13.75ZM12.0001 1.75C14.0294 1.75 15.7281 3.17298 16.1496 5.0762L17.6141 4.75185C17.0437 2.17653 14.7478 0.25 12.0001 0.25V1.75ZM15.9295 5.21322C16.1109 5.30567 16.2846 5.41059 16.4495 5.52692L17.3141 4.30113C17.0909 4.14373 16.8559 4.00177 16.6104 3.87671L15.9295 5.21322ZM16.4495 5.52692C17.0117 5.92338 17.4718 6.45228 17.7868 7.07054L19.1233 6.38955C18.6971 5.55306 18.0746 4.8375 17.3141 4.30113L16.4495 5.52692ZM10.0001 0.25C7.25244 0.25 4.95652 2.17646 4.38612 4.7517L5.85062 5.07608C6.27217 3.17292 7.97084 1.75 10.0001 1.75V0.25ZM5.38955 3.87671C5.1442 4.00173 4.90923 4.14364 4.68613 4.30098L5.55062 5.52681C5.7155 5.41053 5.88917 5.30564 6.07054 5.21322L5.38955 3.87671ZM4.68613 4.30098C3.92553 4.83737 3.30297 5.55298 2.87671 6.38955L4.21322 7.07054C4.52827 6.45222 4.98842 5.92328 5.55062 5.52681L4.68613 4.30098ZM9.99984 22.25C7.97053 22.25 6.27182 20.827 5.85034 18.9237L4.38582 19.2481C4.95614 21.8234 7.25212 23.75 9.99984 23.75V22.25ZM6.07054 18.7868C5.88908 18.6943 5.71533 18.5894 5.55037 18.473L4.68579 19.6988C4.90899 19.8562 5.14407 19.9982 5.38955 20.1233L6.07054 18.7868ZM5.55037 18.473C4.98829 18.0766 4.52823 17.5477 4.21322 16.9295L2.87671 17.6104C3.3029 18.4469 3.92535 19.1624 4.68579 19.6988L5.55037 18.473ZM11.9998 23.75C14.7474 23.75 17.0433 21.8236 17.6138 19.2484L16.1493 18.924C15.7277 20.8271 14.0291 22.25 11.9998 22.25V23.75ZM17.7868 16.9295C17.4717 17.5478 17.0115 18.0768 16.4493 18.4733L17.3138 19.6991C18.0744 19.1627 18.697 18.4471 19.1233 17.6104L17.7868 16.9295ZM16.4493 18.4733C16.2844 18.5895 16.1108 18.6944 15.9295 18.7868L16.6104 20.1233C16.8558 19.9983 17.0907 19.8564 17.3138 19.6991L16.4493 18.4733ZM10.25 11.5C10.25 12.7426 11.2574 13.75 12.5 13.75V12.25C12.0858 12.25 11.75 11.9142 11.75 11.5H10.25Z" fill="#FAFAFA"/>
</svg>
