<svg width="24" height="24" viewBox="0 0 24 24" fill="none" xmlns="http://www.w3.org/2000/svg">
<path d="M5.73005 19.455L6.07054 18.7868L5.73005 19.455ZM3.54497 17.27L4.21322 16.9295L3.54497 17.27ZM18.455 17.27L17.7868 16.9295L18.455 17.27ZM16.27 19.455L15.9295 18.7868L16.27 19.455ZM16.27 4.54497L15.9295 5.21322L16.27 4.54497ZM18.455 6.73005L17.7868 7.07054L18.455 6.73005ZM5.73005 4.54497L6.07054 5.21322L5.73005 4.54497ZM3.54497 6.73005L4.21322 7.07054L3.54497 6.73005ZM21 12.75C21.4142 12.75 21.75 12.4142 21.75 12C21.75 11.5858 21.4142 11.25 21 11.25V12.75ZM11.75 8C11.75 7.58579 11.4142 7.25 11 7.25C10.5858 7.25 10.25 7.58579 10.25 8H11.75ZM14 13.75C14.4142 13.75 14.75 13.4142 14.75 13C14.75 12.5858 14.4142 12.25 14 12.25V13.75ZM7 1.25C6.58579 1.25 6.25 1.58579 6.25 2C6.25 2.41421 6.58579 2.75 7 2.75V1.25ZM15 2.75C15.4142 2.75 15.75 2.41421 15.75 2C15.75 1.58579 15.4142 1.25 15 1.25V2.75ZM7 21.25C6.58579 21.25 6.25 21.5858 6.25 22C6.25 22.4142 6.58579 22.75 7 22.75V21.25ZM15 22.75C15.4142 22.75 15.75 22.4142 15.75 22C15.75 21.5858 15.4142 21.25 15 21.25V22.75ZM11 19.25C9.58749 19.25 8.57322 19.2494 7.77708 19.1844C6.9897 19.12 6.48197 18.9964 6.07054 18.7868L5.38955 20.1233C6.04768 20.4586 6.77479 20.6075 7.65494 20.6794C8.52632 20.7506 9.61224 20.75 11 20.75V19.25ZM2.25 12C2.25 13.3878 2.24942 14.4737 2.32061 15.3451C2.39252 16.2252 2.54138 16.9523 2.87671 17.6104L4.21322 16.9295C4.00359 16.518 3.87996 16.0103 3.81563 15.2229C3.75058 14.4268 3.75 13.4125 3.75 12H2.25ZM6.07054 18.7868C5.27085 18.3793 4.62068 17.7291 4.21322 16.9295L2.87671 17.6104C3.42798 18.6924 4.30762 19.572 5.38955 20.1233L6.07054 18.7868ZM18.25 12C18.25 13.4125 18.2494 14.4268 18.1844 15.2229C18.12 16.0103 17.9964 16.518 17.7868 16.9295L19.1233 17.6104C19.4586 16.9523 19.6075 16.2252 19.6794 15.3451C19.7506 14.4737 19.75 13.3878 19.75 12H18.25ZM11 20.75C12.3878 20.75 13.4737 20.7506 14.3451 20.6794C15.2252 20.6075 15.9523 20.4586 16.6104 20.1233L15.9295 18.7868C15.518 18.9964 15.0103 19.12 14.2229 19.1844C13.4268 19.2494 12.4125 19.25 11 19.25V20.75ZM17.7868 16.9295C17.3793 17.7291 16.7291 18.3793 15.9295 18.7868L16.6104 20.1233C17.6924 19.572 18.572 18.6924 19.1233 17.6104L17.7868 16.9295ZM11 4.75C12.4125 4.75 13.4268 4.75058 14.2229 4.81563C15.0103 4.87996 15.518 5.00359 15.9295 5.21322L16.6104 3.87671C15.9523 3.54138 15.2252 3.39252 14.3451 3.32061C13.4737 3.24942 12.3878 3.25 11 3.25V4.75ZM19.75 12C19.75 10.6122 19.7506 9.52632 19.6794 8.65494C19.6075 7.77479 19.4586 7.04768 19.1233 6.38955L17.7868 7.07054C17.9964 7.48197 18.12 7.9897 18.1844 8.77708C18.2494 9.57322 18.25 10.5875 18.25 12H19.75ZM15.9295 5.21322C16.7291 5.62068 17.3793 6.27085 17.7868 7.07054L19.1233 6.38955C18.572 5.30762 17.6924 4.42798 16.6104 3.87671L15.9295 5.21322ZM11 3.25C9.61224 3.25 8.52632 3.24942 7.65494 3.32061C6.77479 3.39252 6.04768 3.54138 5.38955 3.87671L6.07054 5.21322C6.48197 5.00359 6.9897 4.87996 7.77708 4.81563C8.57322 4.75058 9.58749 4.75 11 4.75V3.25ZM3.75 12C3.75 10.5875 3.75058 9.57322 3.81563 8.77708C3.87996 7.9897 4.00359 7.48197 4.21322 7.07054L2.87671 6.38955C2.54138 7.04768 2.39252 7.77479 2.32061 8.65494C2.24942 9.52632 2.25 10.6122 2.25 12H3.75ZM5.38955 3.87671C4.30762 4.42798 3.42798 5.30762 2.87671 6.38955L4.21322 7.07054C4.62068 6.27085 5.27085 5.62068 6.07054 5.21322L5.38955 3.87671ZM19 12.75H21V11.25H19V12.75ZM10.25 8V11.5H11.75V8H10.25ZM7 2.75H15V1.25H7V2.75ZM7 22.75H15V21.25H7V22.75ZM12.5 13.75H14V12.25H12.5V13.75ZM10.25 11.5C10.25 12.7426 11.2574 13.75 12.5 13.75V12.25C12.0858 12.25 11.75 11.9142 11.75 11.5H10.25Z" fill="#FAFAFA"/>
</svg>
