<svg width="24" height="24" viewBox="0 0 24 24" fill="none" xmlns="http://www.w3.org/2000/svg">
<path d="M12.75 2C12.75 1.58579 12.4142 1.25 12 1.25C11.5858 1.25 11.25 1.58579 11.25 2H12.75ZM11.25 3C11.25 3.41421 11.5858 3.75 12 3.75C12.4142 3.75 12.75 3.41421 12.75 3H11.25ZM12.75 21C12.75 20.5858 12.4142 20.25 12 20.25C11.5858 20.25 11.25 20.5858 11.25 21H12.75ZM11.25 22C11.25 22.4142 11.5858 22.75 12 22.75C12.4142 22.75 12.75 22.4142 12.75 22H11.25ZM21.0352 7.64952C21.3939 7.44241 21.5168 6.98372 21.3097 6.625C21.1026 6.26628 20.6439 6.14337 20.2852 6.35048L21.0352 7.64952ZM19.4192 6.85048C19.0605 7.05759 18.9376 7.51628 19.1447 7.875C19.3518 8.23372 19.8105 8.35663 20.1692 8.14952L19.4192 6.85048ZM4.58075 17.1495C4.93947 16.9424 5.06238 16.4837 4.85527 16.125C4.64816 15.7663 4.18947 15.6434 3.83075 15.8505L4.58075 17.1495ZM2.96472 16.3505C2.606 16.5576 2.4831 17.0163 2.6902 17.375C2.89731 17.7337 3.356 17.8566 3.71472 17.6495L2.96472 16.3505ZM3.71472 6.35048C3.356 6.14337 2.89731 6.26628 2.6902 6.625C2.4831 6.98372 2.606 7.44241 2.96472 7.64952L3.71472 6.35048ZM3.83075 8.14952C4.18947 8.35663 4.64816 8.23372 4.85527 7.875C5.06237 7.51628 4.93947 7.05759 4.58075 6.85048L3.83075 8.14952ZM20.1692 15.8505C19.8105 15.6434 19.3518 15.7663 19.1447 16.125C18.9376 16.4837 19.0605 16.9424 19.4192 17.1495L20.1692 15.8505ZM20.2852 17.6495C20.6439 17.8566 21.1026 17.7337 21.3097 17.375C21.5168 17.0163 21.3939 16.5576 21.0352 16.3505L20.2852 17.6495ZM17.25 12C17.25 14.8995 14.8995 17.25 12 17.25V18.75C15.7279 18.75 18.75 15.7279 18.75 12H17.25ZM12 17.25C9.1005 17.25 6.75 14.8995 6.75 12H5.25C5.25 15.7279 8.27208 18.75 12 18.75V17.25ZM6.75 12C6.75 9.1005 9.1005 6.75 12 6.75V5.25C8.27208 5.25 5.25 8.27208 5.25 12H6.75ZM12 6.75C14.8995 6.75 17.25 9.1005 17.25 12H18.75C18.75 8.27208 15.7279 5.25 12 5.25V6.75ZM11.25 2V3H12.75V2H11.25ZM11.25 21V22H12.75V21H11.25ZM20.2852 6.35048L19.4192 6.85048L20.1692 8.14952L21.0352 7.64952L20.2852 6.35048ZM3.83075 15.8505L2.96472 16.3505L3.71472 17.6495L4.58075 17.1495L3.83075 15.8505ZM2.96472 7.64952L3.83075 8.14952L4.58075 6.85048L3.71472 6.35048L2.96472 7.64952ZM19.4192 17.1495L20.2852 17.6495L21.0352 16.3505L20.1692 15.8505L19.4192 17.1495Z" fill="#28303F"/>
</svg>
