<svg width="24" height="24" viewBox="0 0 24 24" fill="none" xmlns="http://www.w3.org/2000/svg">
<path d="M4.53039 3.46967C4.2375 3.17678 3.76262 3.17678 3.46973 3.46967C3.17684 3.76256 3.17684 4.23744 3.46973 4.53033L4.53039 3.46967ZM19.4697 20.5303C19.7626 20.8232 20.2375 20.8232 20.5304 20.5303C20.8233 20.2374 20.8233 19.7626 20.5304 19.4697L19.4697 20.5303ZM14.5002 14.795C14.8089 14.5187 14.8352 14.0446 14.5589 13.7359C14.2827 13.4273 13.8085 13.401 13.4999 13.6773L14.5002 14.795ZM10.3228 10.5002C10.5991 10.1915 10.5728 9.71739 10.2641 9.44115C9.95549 9.1649 9.48135 9.19117 9.2051 9.49981L10.3228 10.5002ZM2.86977 14.1469L2.32614 14.6636H2.32614L2.86977 14.1469ZM21.1304 9.8531L21.674 9.33641V9.33641L21.1304 9.8531ZM21.1304 14.1469L21.674 14.6636H21.674L21.1304 14.1469ZM2.86977 9.8531L2.32614 9.33641H2.32614L2.86977 9.8531ZM19.1153 15.0421C18.8029 15.314 18.7702 15.7878 19.0422 16.1002C19.3142 16.4126 19.7879 16.4453 20.1003 16.1734L19.1153 15.0421ZM9.18837 4.69699C8.79313 4.82092 8.57319 5.24179 8.69712 5.63703C8.82104 6.03227 9.24191 6.25221 9.63715 6.12829L9.18837 4.69699ZM6.9036 7.43556C7.25275 7.21269 7.35511 6.74898 7.13224 6.39984C6.90937 6.0507 6.44566 5.94833 6.09652 6.1712L6.9036 7.43556ZM17.5516 18.0471C17.9065 17.8335 18.0211 17.3727 17.8075 17.0177C17.594 16.6628 17.1331 16.5482 16.7782 16.7618L17.5516 18.0471ZM3.46973 4.53033L19.4697 20.5303L20.5304 19.4697L4.53039 3.46967L3.46973 4.53033ZM8.25006 12C8.25006 14.0711 9.92899 15.75 12.0001 15.75V14.25C10.7574 14.25 9.75006 13.2426 9.75006 12H8.25006ZM12.0001 15.75C12.96 15.75 13.8373 15.3883 14.5002 14.795L13.4999 13.6773C13.1013 14.034 12.5768 14.25 12.0001 14.25V15.75ZM9.2051 9.49981C8.61175 10.1628 8.25006 11.04 8.25006 12H9.75006C9.75006 11.4233 9.96608 10.8988 10.3228 10.5002L9.2051 9.49981ZM2.32614 14.6636C4.29777 16.738 7.84904 19.75 12.0001 19.75V18.25C8.52005 18.25 5.35334 15.6713 3.4134 13.6302L2.32614 14.6636ZM21.674 9.33641C19.7024 7.26198 16.1511 4.25 12.0001 4.25V5.75C15.4801 5.75 18.6468 8.32869 20.5867 10.3698L21.674 9.33641ZM21.674 14.6636C23.1088 13.154 23.1088 10.846 21.674 9.33641L20.5867 10.3698C21.4712 11.3004 21.4712 12.6996 20.5867 13.6302L21.674 14.6636ZM3.4134 13.6302C2.52895 12.6996 2.52895 11.3004 3.4134 10.3698L2.32614 9.33641C0.891369 10.846 0.891369 13.154 2.32614 14.6636L3.4134 13.6302ZM20.1003 16.1734C20.6921 15.6581 21.2203 15.1409 21.674 14.6636L20.5867 13.6302C20.1603 14.0789 19.6662 14.5624 19.1153 15.0421L20.1003 16.1734ZM12.0001 4.25C11.0225 4.25 10.0802 4.41736 9.18837 4.69699L9.63715 6.12829C10.4043 5.88776 11.1949 5.75 12.0001 5.75V4.25ZM6.09652 6.1712C4.57057 7.14527 3.28021 8.33259 2.32614 9.33641L3.4134 10.3698C4.31518 9.42098 5.51243 8.3236 6.9036 7.43556L6.09652 6.1712ZM12.0001 19.75C14.0477 19.75 15.9404 19.0165 17.5516 18.0471L16.7782 16.7618C15.3132 17.6433 13.6886 18.25 12.0001 18.25V19.75Z" fill="#28303F"/>
</svg>
