<svg width="24" height="24" viewBox="0 0 24 24" fill="none" xmlns="http://www.w3.org/2000/svg">
<path d="M13.25 4C13.25 4.69036 12.6903 5.25 12 5.25V6.75C13.5188 6.75 14.75 5.51878 14.75 4H13.25ZM12 5.25C11.3096 5.25 10.75 4.69036 10.75 4H9.24999C9.24999 5.51878 10.4812 6.75 12 6.75V5.25ZM10.75 4C10.75 3.30964 11.3096 2.75 12 2.75V1.25C10.4812 1.25 9.24999 2.48122 9.24999 4H10.75ZM12 2.75C12.6903 2.75 13.25 3.30964 13.25 4H14.75C14.75 2.48122 13.5188 1.25 12 1.25V2.75ZM13.25 20C13.25 20.6904 12.6903 21.25 12 21.25V22.75C13.5188 22.75 14.75 21.5188 14.75 20H13.25ZM12 21.25C11.3096 21.25 10.75 20.6904 10.75 20H9.24999C9.24999 21.5188 10.4812 22.75 12 22.75V21.25ZM10.75 20C10.75 19.3096 11.3096 18.75 12 18.75V17.25C10.4812 17.25 9.24999 18.4812 9.24999 20H10.75ZM12 18.75C12.6903 18.75 13.25 19.3096 13.25 20H14.75C14.75 18.4812 13.5188 17.25 12 17.25V18.75ZM19.5532 9.08253C18.9554 9.4277 18.1909 9.22286 17.8457 8.625L16.5467 9.375C17.306 10.6903 18.9879 11.141 20.3032 10.3816L19.5532 9.08253ZM17.8457 8.625C17.5005 8.02713 17.7054 7.26264 18.3032 6.91746L17.5532 5.61843C16.2379 6.37782 15.7873 8.05969 16.5467 9.375L17.8457 8.625ZM18.3032 6.91746C18.9011 6.57229 19.6656 6.77713 20.0108 7.375L21.3098 6.625C20.5504 5.30969 18.8685 4.85903 17.5532 5.61843L18.3032 6.91746ZM20.0108 7.375C20.3559 7.97286 20.1511 8.73735 19.5532 9.08253L20.3032 10.3816C21.6185 9.62217 22.0692 7.9403 21.3098 6.625L20.0108 7.375ZM5.69684 17.0825C5.09897 17.4277 4.33448 17.2229 3.9893 16.625L2.69027 17.375C3.44966 18.6903 5.13153 19.141 6.44684 18.3816L5.69684 17.0825ZM3.9893 16.625C3.64413 16.0271 3.84897 15.2626 4.44684 14.9175L3.69684 13.6184C2.38153 14.3778 1.93088 16.0597 2.69027 17.375L3.9893 16.625ZM4.44684 14.9175C5.0447 14.5723 5.80919 14.7771 6.15437 15.375L7.45341 14.625C6.69402 13.3097 5.01214 12.859 3.69684 13.6184L4.44684 14.9175ZM6.15437 15.375C6.49955 15.9729 6.2947 16.7373 5.69684 17.0825L6.44684 18.3816C7.76214 17.6222 8.2128 15.9403 7.45341 14.625L6.15437 15.375ZM18.3032 17.0825C17.7054 16.7373 17.5005 15.9729 17.8457 15.375L16.5467 14.625C15.7873 15.9403 16.2379 17.6222 17.5532 18.3816L18.3032 17.0825ZM17.8457 15.375C18.1909 14.7771 18.9554 14.5723 19.5532 14.9175L20.3032 13.6184C18.9879 12.859 17.306 13.3097 16.5467 14.625L17.8457 15.375ZM19.5532 14.9175C20.1511 15.2626 20.3559 16.0271 20.0108 16.625L21.3098 17.375C22.0692 16.0597 21.6185 14.3778 20.3032 13.6184L19.5532 14.9175ZM20.0108 16.625C19.6656 17.2229 18.9011 17.4277 18.3032 17.0825L17.5532 18.3816C18.8685 19.141 20.5504 18.6903 21.3098 17.375L20.0108 16.625ZM4.44684 9.08256C3.84897 8.73738 3.64413 7.97289 3.9893 7.37503L2.69027 6.62503C1.93088 7.94033 2.38153 9.6222 3.69684 10.3816L4.44684 9.08256ZM3.9893 7.37503C4.33448 6.77716 5.09897 6.57232 5.69684 6.91749L6.44684 5.61846C5.13153 4.85906 3.44966 5.30972 2.69027 6.62503L3.9893 7.37503ZM5.69684 6.91749C6.2947 7.26267 6.49955 8.02716 6.15437 8.62503L7.45341 9.37503C8.2128 8.05972 7.76214 6.37785 6.44684 5.61846L5.69684 6.91749ZM6.15437 8.62503C5.80919 9.22289 5.0447 9.42774 4.44684 9.08256L3.69684 10.3816C5.01214 11.141 6.69402 10.6903 7.45341 9.37503L6.15437 8.62503Z" fill="#28303F"/>
</svg>
