<svg width="24" height="24" viewBox="0 0 24 24" fill="none" xmlns="http://www.w3.org/2000/svg">
<path d="M3.98718 17.2308L4.67949 17.5192L3.98718 17.2308ZM3.15385 19.2308L3.84616 19.5192L3.15385 19.2308ZM20.8462 19.2308L20.1538 19.5192L20.8462 19.2308ZM20.0128 17.2308L20.7051 16.9423V16.9423L20.0128 17.2308ZM16 15.25C15.5858 15.25 15.25 15.5858 15.25 16C15.25 16.4142 15.5858 16.75 16 16.75V15.25ZM8 16.75C8.41422 16.75 8.75 16.4142 8.75 16C8.75 15.5858 8.41422 15.25 8 15.25V16.75ZM18.25 9.11111C18.25 10.8311 17.2711 12.8886 15.9048 14.5523C15.2308 15.373 14.4899 16.0632 13.7813 16.5419C13.0566 17.0316 12.4404 17.25 12 17.25V18.75C12.8721 18.75 13.7871 18.3483 14.621 17.7849C15.471 17.2106 16.3161 16.4149 17.064 15.5043C18.5414 13.7054 19.75 11.3185 19.75 9.11111H18.25ZM12 17.25C11.5596 17.25 10.9434 17.0316 10.2187 16.5419C9.51011 16.0632 8.76923 15.373 8.09522 14.5523C6.72886 12.8886 5.75 10.8311 5.75 9.11111H4.25C4.25 11.3185 5.45865 13.7054 6.93604 15.5043C7.68391 16.4149 8.52896 17.2106 9.37896 17.7849C10.2129 18.3483 11.1279 18.75 12 18.75V17.25ZM5.75 9.11111C5.75 5.58679 8.55932 2.75 12 2.75V1.25C7.70871 1.25 4.25 4.78072 4.25 9.11111H5.75ZM12 2.75C15.4407 2.75 18.25 5.58679 18.25 9.11111H19.75C19.75 4.78072 16.2913 1.25 12 1.25V2.75ZM13.75 9C13.75 9.9665 12.9665 10.75 12 10.75V12.25C13.7949 12.25 15.25 10.7949 15.25 9H13.75ZM12 10.75C11.0335 10.75 10.25 9.9665 10.25 9H8.75C8.75 10.7949 10.2051 12.25 12 12.25V10.75ZM10.25 9C10.25 8.0335 11.0335 7.25 12 7.25V5.75C10.2051 5.75 8.75 7.20507 8.75 9H10.25ZM12 7.25C12.9665 7.25 13.75 8.0335 13.75 9H15.25C15.25 7.20507 13.7949 5.75 12 5.75V7.25ZM3.29488 16.9423L2.46154 18.9423L3.84616 19.5192L4.67949 17.5192L3.29488 16.9423ZM5 22.75H19V21.25H5V22.75ZM21.5385 18.9423L20.7051 16.9423L19.3205 17.5192L20.1538 19.5192L21.5385 18.9423ZM18.1667 15.25H16V16.75H18.1667V15.25ZM5.83334 16.75H8V15.25H5.83334V16.75ZM20.7051 16.9423C20.2781 15.9175 19.2768 15.25 18.1667 15.25V16.75C18.6713 16.75 19.1264 17.0534 19.3205 17.5192L20.7051 16.9423ZM19 22.75C20.9623 22.75 22.2932 20.7537 21.5385 18.9423L20.1538 19.5192C20.4969 20.3426 19.892 21.25 19 21.25V22.75ZM2.46154 18.9423C1.7068 20.7537 3.03766 22.75 5 22.75V21.25C4.10803 21.25 3.50309 20.3426 3.84616 19.5192L2.46154 18.9423ZM4.67949 17.5192C4.87358 17.0534 5.32871 16.75 5.83334 16.75V15.25C4.72316 15.25 3.72187 15.9175 3.29488 16.9423L4.67949 17.5192Z" fill="#28303F"/>
</svg>
