<svg width="24" height="24" viewBox="0 0 24 24" fill="none" xmlns="http://www.w3.org/2000/svg">
<path d="M3.57898 2.46967C3.28608 2.17678 2.81121 2.17678 2.51831 2.46967C2.22542 2.76256 2.22542 3.23744 2.51831 3.53033L3.57898 2.46967ZM20.5183 21.5303C20.8112 21.8232 21.2861 21.8232 21.579 21.5303C21.8719 21.2374 21.8719 20.7626 21.579 20.4697L20.5183 21.5303ZM17.7772 18.75C18.1914 18.75 18.5272 18.4142 18.5272 18C18.5272 17.5858 18.1914 17.25 17.7772 17.25V18.75ZM18.2395 8.97519L17.4943 9.05977L18.2395 8.97519ZM18.6867 12.9153L19.4319 12.8307V12.8307L18.6867 12.9153ZM5.31328 12.9153L4.56806 12.8307V12.8307L5.31328 12.9153ZM5.76046 8.97519L6.50568 9.05977L5.76046 8.97519ZM4.44779 14.8721L3.87668 14.386L4.44779 14.8721ZM19.5522 14.8721L20.1233 14.386V14.386L19.5522 14.8721ZM14.2699 4.37366H13.5199C13.5199 4.69424 13.7237 4.97938 14.027 5.08322L14.2699 4.37366ZM9.73005 4.37366L9.973 5.08322C10.2763 4.97938 10.4801 4.69424 10.4801 4.37366H9.73005ZM19.2487 15.9881C19.2703 16.4018 19.6231 16.7196 20.0368 16.698C20.4504 16.6765 20.7683 16.3236 20.7467 15.91L19.2487 15.9881ZM8.468 4.1003C8.10057 4.29153 7.95773 4.74441 8.14895 5.11184C8.34017 5.47927 8.79305 5.62212 9.16049 5.43089L8.468 4.1003ZM7.23209 7.11886C7.46417 6.77577 7.37418 6.3095 7.03109 6.07742C6.688 5.84533 6.22174 5.93532 5.98965 6.27841L7.23209 7.11886ZM15.7023 20.2632C15.8477 19.8753 15.6511 19.4431 15.2632 19.2977C14.8753 19.1523 14.4431 19.3489 14.2977 19.7368L15.7023 20.2632ZM9.7023 19.7368C9.55694 19.3489 9.12467 19.1523 8.7368 19.2977C8.34893 19.4431 8.15234 19.8753 8.2977 20.2632L9.7023 19.7368ZM2.51831 3.53033L20.5183 21.5303L21.579 20.4697L3.57898 2.46967L2.51831 3.53033ZM17.7772 17.25H6.22281V18.75H17.7772V17.25ZM17.4943 9.05977L17.9415 12.9998L19.4319 12.8307L18.9848 8.89061L17.4943 9.05977ZM6.05849 12.9998L6.50568 9.05977L5.01525 8.89061L4.56806 12.8307L6.05849 12.9998ZM5.01889 15.3583C5.59621 14.6801 5.96028 13.8652 6.05849 12.9998L4.56806 12.8307C4.50519 13.3846 4.27067 13.9231 3.87668 14.386L5.01889 15.3583ZM17.9415 12.9998C18.0397 13.8652 18.4038 14.6801 18.9811 15.3583L20.1233 14.386C19.7293 13.9231 19.4948 13.3846 19.4319 12.8307L17.9415 12.9998ZM6.22281 17.25C5.56777 17.25 5.10443 16.926 4.89056 16.5492C4.68409 16.1854 4.68714 15.748 5.01889 15.3583L3.87668 14.386C3.11141 15.285 3.08777 16.4116 3.58598 17.2895C4.07679 18.1544 5.04947 18.75 6.22281 18.75V17.25ZM15.0199 4.37366V4.26995H13.5199V4.37366H15.0199ZM18.9848 8.89061C18.7055 6.43026 16.8806 4.47476 14.5129 3.6641L14.027 5.08322C15.9441 5.73962 17.2913 7.27101 17.4943 9.05977L18.9848 8.89061ZM10.4801 4.37366V4.26995H8.98005V4.37366H10.4801ZM12 2.75C12.8394 2.75 13.5199 3.4305 13.5199 4.26995H15.0199C15.0199 2.60208 13.6679 1.25 12 1.25V2.75ZM12 1.25C10.3321 1.25 8.98005 2.60208 8.98005 4.26995H10.4801C10.4801 3.4305 11.1606 2.75 12 2.75V1.25ZM20.7467 15.91C20.7186 15.3717 20.5121 14.8428 20.1233 14.386L18.9811 15.3583C19.1638 15.5729 19.2384 15.7901 19.2487 15.9881L20.7467 15.91ZM9.16049 5.43089C9.41823 5.29676 9.68981 5.18018 9.973 5.08322L9.48711 3.6641C9.13345 3.78519 8.79277 3.93128 8.468 4.1003L9.16049 5.43089ZM6.50568 9.05977C6.58539 8.35745 6.83877 7.70031 7.23209 7.11886L5.98965 6.27841C5.46865 7.04862 5.12381 7.93412 5.01525 8.89061L6.50568 9.05977ZM14.2977 19.7368C13.975 20.5979 13.0846 21.25 12 21.25V22.75C13.6855 22.75 15.1516 21.7325 15.7023 20.2632L14.2977 19.7368ZM12 21.25C10.9154 21.25 10.025 20.5979 9.7023 19.7368L8.2977 20.2632C8.84835 21.7325 10.3145 22.75 12 22.75V21.25Z" fill="#28303F"/>
</svg>
