<svg width="24" height="24" viewBox="0 0 24 24" fill="none" xmlns="http://www.w3.org/2000/svg">
<path d="M5.37762 4.94321L5.07302 4.25785L5.37762 4.94321ZM10.3754 2.72195L10.68 3.40731L10.3754 2.72195ZM13.6246 2.72195L13.9292 2.03659V2.03659L13.6246 2.72195ZM18.6026 4.9344L18.298 5.61976L18.6026 4.9344ZM3.07 8.60384L2.32127 8.64745L3.07 8.60384ZM9.9358 20.6769L10.3563 20.0558H10.3563L9.9358 20.6769ZM14.0646 20.6776L14.4858 21.2982H14.4858L14.0646 20.6776ZM20.9118 8.62522L20.1633 8.5772V8.5772L20.9118 8.62522ZM5.68223 5.62856L10.68 3.40731L10.0708 2.03659L5.07302 4.25785L5.68223 5.62856ZM13.32 3.40731L18.298 5.61976L18.9072 4.24904L13.9292 2.03659L13.32 3.40731ZM2.32127 8.64745C2.50475 11.7975 3.06186 14.152 4.229 16.1423C5.39489 18.1305 7.12621 19.6805 9.51534 21.2979L10.3563 20.0558C8.04727 18.4926 6.52551 17.0932 5.52293 15.3835C4.52161 13.676 3.99488 11.5844 3.81873 8.56023L2.32127 8.64745ZM14.4858 21.2982C16.8852 19.6699 18.603 18.1053 19.7575 16.1152C20.9122 14.1245 21.4608 11.7819 21.6603 8.67325L20.1633 8.5772C19.9715 11.5664 19.4529 13.6509 18.46 15.3625C17.4668 17.0746 15.9566 18.4873 13.6435 20.057L14.4858 21.2982ZM9.51534 21.2979C11.0131 22.3119 12.9871 22.3152 14.4858 21.2982L13.6435 20.057C12.6549 20.7279 11.3477 20.727 10.3563 20.0558L9.51534 21.2979ZM10.68 3.40731C11.5204 3.03383 12.4796 3.03383 13.32 3.40731L13.9292 2.03659C12.701 1.49073 11.299 1.49073 10.0708 2.03659L10.68 3.40731ZM18.298 5.61976C19.4908 6.1499 20.2436 7.32611 20.1633 8.5772L21.6603 8.67325C21.784 6.74488 20.6258 5.01286 18.9072 4.24904L18.298 5.61976ZM5.07302 4.25785C3.36667 5.01622 2.2096 6.73032 2.32127 8.64745L3.81873 8.56023C3.74642 7.31878 4.49733 6.15518 5.68223 5.62856L5.07302 4.25785ZM14.25 11.9999C14.25 13.2426 13.2426 14.2499 12 14.2499V15.7499C14.0711 15.7499 15.75 14.071 15.75 11.9999H14.25ZM12 14.2499C10.7574 14.2499 9.75 13.2426 9.75 11.9999H8.25C8.25 14.071 9.92893 15.7499 12 15.7499V14.2499ZM9.75 11.9999C9.75 10.7573 10.7574 9.74993 12 9.74993V8.24993C9.92893 8.24993 8.25 9.92886 8.25 11.9999H9.75ZM12 9.74993C13.2426 9.74993 14.25 10.7573 14.25 11.9999H15.75C15.75 9.92886 14.0711 8.24993 12 8.24993V9.74993Z" fill="#28303F"/>
</svg>
