<svg width="24" height="24" viewBox="0 0 24 24" fill="none" xmlns="http://www.w3.org/2000/svg">
<path d="M2.88821 17.2628L2.15105 17.1246L2.88821 17.2628ZM21.1118 17.2628L21.8489 17.1246L21.1118 17.2628ZM19.6118 9.26285L18.8746 9.40106L19.6118 9.26285ZM4.38821 9.26285L5.12536 9.40106L4.38821 9.26285ZM12 2.75C13.7949 2.75 15.25 4.20507 15.25 6H16.75C16.75 3.37665 14.6233 1.25 12 1.25V2.75ZM12 1.25C9.37664 1.25 7.24999 3.37665 7.24999 6H8.74999C8.74999 4.20507 10.2051 2.75 12 2.75V1.25ZM8.3197 6.75H15.6803V5.25H8.3197V6.75ZM18.8746 9.40106L20.3746 17.4011L21.8489 17.1246L20.3489 9.12463L18.8746 9.40106ZM17.1803 21.25H6.8197V22.75H17.1803V21.25ZM3.62536 17.4011L5.12536 9.40106L3.65105 9.12463L2.15105 17.1246L3.62536 17.4011ZM6.8197 21.25C4.78475 21.25 3.25035 19.4012 3.62536 17.4011L2.15105 17.1246C1.60295 20.0478 3.84554 22.75 6.8197 22.75V21.25ZM20.3746 17.4011C20.7496 19.4012 19.2152 21.25 17.1803 21.25V22.75C20.1544 22.75 22.397 20.0478 21.8489 17.1246L20.3746 17.4011ZM15.6803 6.75C17.2442 6.75 18.5864 7.8639 18.8746 9.40106L20.3489 9.12463C19.9277 6.87801 17.9661 5.25 15.6803 5.25V6.75ZM8.3197 5.25C6.03393 5.25 4.0723 6.87801 3.65105 9.12463L5.12536 9.40106C5.41358 7.8639 6.75575 6.75 8.3197 6.75V5.25Z" fill="#28303F"/>
</svg>
